<svg width="19" height="16" viewBox="0 0 19 16" fill="none" xmlns="http://www.w3.org/2000/svg">
<path d="M8.29692 3.27991H17.8289C18.633 3.27991 19.1976 4.07211 18.9351 4.83226L18.0779 9.52831C17.9148 10.0009 17.4699 10.3179 16.97 10.3179H8.73013C8.09775 10.3179 7.60504 9.76979 7.67214 9.14105L8.29692 3.27991Z" fill="#DFAF35"/>
<path d="M17.6054 10.9013C17.3802 11.6457 16.6941 12.1553 15.9162 12.1558L8.06574 12.1611C7.34445 12.1611 6.65306 11.8545 6.16894 11.3196C5.68483 10.7849 5.44831 10.0666 5.51971 9.34896L6.15043 3.01924C6.21688 2.35248 5.75276 1.73482 5.09377 1.613L3.12408 1.24938C2.78194 1.18624 2.55583 0.85782 2.61897 0.515682C2.68211 0.173544 3.01053 -0.0525648 3.35267 0.0105737L5.32236 0.374196C6.62034 0.613692 7.53469 1.83035 7.40395 3.14386L6.77736 9.43144C6.74182 9.78729 6.83421 10.1511 7.06197 10.4268C7.3142 10.7322 7.67336 10.9011 8.06574 10.9011H17.6054V10.9013Z" fill="#789885"/>
<path d="M8.86253 14.7219C9.33992 14.2028 9.30607 13.3949 8.78693 12.9175C8.26779 12.4401 7.45995 12.474 6.98256 12.9931C6.50516 13.5123 6.53901 14.3201 7.05815 14.7975C7.57729 15.2749 8.38514 15.241 8.86253 14.7219Z" fill="#789885"/>
<path d="M14.8236 14.7625C15.3223 14.2638 15.3223 13.4552 14.8236 12.9565C14.3249 12.4579 13.5164 12.4579 13.0177 12.9565C12.519 13.4552 12.519 14.2638 13.0177 14.7625C13.5164 15.2611 14.3249 15.2611 14.8236 14.7625Z" fill="#789885"/>
<path d="M10.8364 4.21387L10.6477 6.05414C10.5384 7.12551 11.2584 7.97028 12.3225 8.0192L13.4256 8.06994C13.4343 8.07028 13.4429 8.07061 13.4515 8.07094C14.5115 8.10614 15.5576 7.3108 15.8404 6.24934L16.3339 4.39766C16.3784 4.23056 16.2814 4.07932 16.1172 4.05949C16.1086 4.0585 16.1002 4.05784 16.0916 4.05767C15.9359 4.05255 15.7817 4.16809 15.7394 4.32659L15.2459 6.17827C15.0469 6.92535 14.3155 7.48715 13.5651 7.46219C13.5581 7.46203 13.551 7.4617 13.5439 7.46137L12.4408 7.41063C11.6909 7.37609 11.1833 6.78073 11.2604 6.02571L11.4491 4.1856C11.4655 4.02627 11.3564 3.90032 11.2 3.8952C11.1914 3.89487 11.1828 3.89504 11.1739 3.89537C11.0048 3.9033 10.8536 4.04577 10.8364 4.21387Z" fill="white"/>
<path d="M4.47923 6.99959L3.16886 7.00852L3.15993 5.69814C3.15663 5.21667 3.54438 4.82379 4.02569 4.82065L5.33606 4.81189L5.34499 6.12226C5.34829 6.60341 4.9607 6.99645 4.47923 6.99959Z" fill="#789885"/>
<path d="M3.00963 10.3657L1.61711 10.3752L1.60769 8.98264C1.60422 8.47109 2.01611 8.05342 2.52782 8.04994L3.92034 8.04053L3.92976 9.43304C3.93324 9.94476 3.52118 10.3624 3.00963 10.3657Z" fill="#789885"/>
<path d="M0.937175 8.23695L0.00629561 8.24323L1.44777e-05 7.31235C-0.0022995 6.97038 0.273064 6.69121 0.615037 6.6889L1.54592 6.68262L1.5522 7.6135C1.55451 7.95547 1.27915 8.23463 0.937175 8.23695Z" fill="#789885"/>
</svg>
