<svg width="68" height="13" viewBox="0 0 68 13" fill="none" xmlns="http://www.w3.org/2000/svg">
<path d="M0.065 3.64H2.285V9.91C2.195 9.93 2.055 9.955 1.865 9.985C1.685 10.015 1.49 10.03 1.28 10.03C0.91 10.03 0.615 9.92 0.395 9.7C0.175 9.48 0.065 9.185 0.065 8.815V3.64ZM2.285 7.27H0.065V2.125C0.065 1.745 0.175 1.45 0.395 1.24C0.615 1.02 0.91 0.91 1.28 0.91C1.49 0.91 1.685 0.925 1.865 0.954999C2.055 0.985 2.195 1.01 2.285 1.03V7.27ZM1.28 6.265V4.465H5.81C5.87 4.565 5.925 4.69 5.975 4.84C6.025 4.99 6.05 5.155 6.05 5.335C6.05 5.655 5.975 5.89 5.825 6.04C5.685 6.19 5.495 6.265 5.255 6.265H1.28ZM1.28 10.03V8.215H6.305C6.365 8.305 6.42 8.43 6.47 8.59C6.52 8.75 6.545 8.92 6.545 9.1C6.545 9.42 6.47 9.655 6.32 9.805C6.18 9.955 5.99 10.03 5.75 10.03H1.28ZM1.28 2.71V0.91H6.23C6.3 1 6.355 1.12 6.395 1.27C6.445 1.42 6.47 1.585 6.47 1.765C6.47 2.085 6.4 2.325 6.26 2.485C6.12 2.635 5.925 2.71 5.675 2.71H1.28ZM11.5092 8.575C11.7392 8.575 11.9642 8.555 12.1842 8.515C12.4142 8.465 12.5792 8.41 12.6792 8.35V6.91L11.4192 7.03C11.0792 7.05 10.8092 7.12 10.6092 7.24C10.4092 7.36 10.3092 7.54 10.3092 7.78C10.3092 8.02 10.4042 8.215 10.5942 8.365C10.7842 8.505 11.0892 8.575 11.5092 8.575ZM11.4192 2.575C12.4592 2.575 13.2892 2.795 13.9092 3.235C14.5292 3.665 14.8392 4.335 14.8392 5.245V8.65C14.8392 8.9 14.7742 9.105 14.6442 9.265C14.5142 9.415 14.3492 9.545 14.1492 9.655C13.8492 9.835 13.4742 9.975 13.0242 10.075C12.5842 10.185 12.0792 10.24 11.5092 10.24C10.4892 10.24 9.67418 10.04 9.06418 9.64C8.46418 9.24 8.16418 8.645 8.16418 7.855C8.16418 7.175 8.37418 6.655 8.79418 6.295C9.21418 5.925 9.83918 5.7 10.6692 5.62L12.6642 5.41V5.23C12.6642 4.89 12.5292 4.645 12.2592 4.495C11.9992 4.345 11.6242 4.27 11.1342 4.27C10.7542 4.27 10.3792 4.315 10.0092 4.405C9.64918 4.495 9.32418 4.6 9.03418 4.72C8.91418 4.64 8.80918 4.52 8.71918 4.36C8.63918 4.19 8.59918 4.015 8.59918 3.835C8.59918 3.415 8.82918 3.11 9.28918 2.92C9.57918 2.8 9.91418 2.715 10.2942 2.665C10.6842 2.605 11.0592 2.575 11.4192 2.575ZM22.9122 7.9C22.9122 8.63 22.6372 9.205 22.0872 9.625C21.5372 10.035 20.7372 10.24 19.6872 10.24C18.8672 10.24 18.1922 10.12 17.6622 9.88C17.1322 9.64 16.8672 9.285 16.8672 8.815C16.8672 8.605 16.9122 8.425 17.0022 8.275C17.0922 8.115 17.2072 7.99 17.3472 7.9C17.6272 8.06 17.9522 8.21 18.3222 8.35C18.7022 8.48 19.1322 8.545 19.6122 8.545C20.3422 8.545 20.7072 8.335 20.7072 7.915C20.7072 7.735 20.6422 7.595 20.5122 7.495C20.3822 7.385 20.1672 7.305 19.8672 7.255L19.2372 7.105C18.4372 6.935 17.8372 6.675 17.4372 6.325C17.0472 5.965 16.8522 5.475 16.8522 4.855C16.8522 4.155 17.1322 3.6 17.6922 3.19C18.2622 2.77 19.0272 2.56 19.9872 2.56C20.4672 2.56 20.9022 2.61 21.2922 2.71C21.6922 2.8 22.0072 2.945 22.2372 3.145C22.4672 3.335 22.5822 3.575 22.5822 3.865C22.5822 4.065 22.5422 4.24 22.4622 4.39C22.3822 4.54 22.2772 4.665 22.1472 4.765C22.0372 4.695 21.8672 4.62 21.6372 4.54C21.4172 4.46 21.1722 4.395 20.9022 4.345C20.6422 4.295 20.3972 4.27 20.1672 4.27C19.8072 4.27 19.5272 4.32 19.3272 4.42C19.1272 4.51 19.0272 4.655 19.0272 4.855C19.0272 4.985 19.0822 5.1 19.1922 5.2C19.3122 5.29 19.5172 5.365 19.8072 5.425L20.4072 5.575C21.2972 5.775 21.9372 6.065 22.3272 6.445C22.7172 6.815 22.9122 7.3 22.9122 7.9ZM25.8042 8.215C25.6442 7.885 25.4692 7.485 25.2792 7.015C25.0992 6.545 24.9092 5.99 24.7092 5.35C24.5092 4.71 24.2942 3.97 24.0642 3.13C24.1942 3 24.3592 2.89 24.5592 2.8C24.7692 2.7 24.9942 2.65 25.2342 2.65C25.5442 2.65 25.7992 2.715 25.9992 2.845C26.1992 2.975 26.3492 3.22 26.4492 3.58C26.6792 4.31 26.9092 5.035 27.1392 5.755C27.3692 6.475 27.6042 7.2 27.8442 7.93H27.9042C28.0742 7.48 28.2442 6.97 28.4142 6.4C28.5942 5.83 28.7592 5.245 28.9092 4.645C29.0592 4.035 29.1892 3.45 29.2992 2.89C29.4392 2.82 29.5892 2.765 29.7492 2.725C29.9092 2.675 30.0742 2.65 30.2442 2.65C30.5542 2.65 30.8192 2.72 31.0392 2.86C31.2692 2.99 31.3842 3.215 31.3842 3.535C31.3842 3.815 31.3392 4.16 31.2492 4.57C31.1692 4.98 31.0592 5.425 30.9192 5.905C30.7792 6.375 30.6142 6.86 30.4242 7.36C30.2342 7.85 30.0342 8.325 29.8242 8.785C29.6242 9.245 29.4192 9.66 29.2092 10.03C28.6692 10.97 28.1692 11.67 27.7092 12.13C27.2592 12.6 26.8092 12.835 26.3592 12.835C25.9992 12.835 25.6992 12.725 25.4592 12.505C25.2292 12.285 25.0892 12.005 25.0392 11.665C25.2592 11.485 25.4842 11.275 25.7142 11.035C25.9442 10.805 26.1642 10.555 26.3742 10.285C26.5842 10.025 26.7692 9.765 26.9292 9.505C26.7592 9.455 26.5842 9.345 26.4042 9.175C26.2242 9.005 26.0242 8.685 25.8042 8.215Z" fill="#DFAF35"/>
<path d="M36.0812 8.395C36.6212 8.395 37.0062 8.3 37.2362 8.11C37.4762 7.91 37.5962 7.675 37.5962 7.405C37.5962 7.155 37.5012 6.955 37.3112 6.805C37.1312 6.645 36.8612 6.51 36.5012 6.4L35.7062 6.145C35.1662 5.965 34.6862 5.765 34.2662 5.545C33.8562 5.325 33.5362 5.04 33.3062 4.69C33.0862 4.34 32.9762 3.895 32.9762 3.355C32.9762 2.525 33.2912 1.865 33.9212 1.375C34.5512 0.885 35.4262 0.64 36.5462 0.64C37.1162 0.64 37.6212 0.695 38.0612 0.804999C38.5112 0.914999 38.8612 1.08 39.1112 1.3C39.3712 1.51 39.5012 1.77 39.5012 2.08C39.5012 2.31 39.4462 2.51 39.3362 2.68C39.2362 2.84 39.1062 2.98 38.9462 3.1C38.7162 2.94 38.4112 2.805 38.0312 2.695C37.6512 2.575 37.2312 2.515 36.7712 2.515C36.2912 2.515 35.9312 2.595 35.6912 2.755C35.4512 2.905 35.3312 3.105 35.3312 3.355C35.3312 3.555 35.4112 3.72 35.5712 3.85C35.7312 3.97 35.9712 4.08 36.2912 4.18L37.1162 4.435C38.0262 4.715 38.7262 5.09 39.2162 5.56C39.7062 6.02 39.9512 6.64 39.9512 7.42C39.9512 8.26 39.6262 8.945 38.9762 9.475C38.3262 9.995 37.3862 10.255 36.1562 10.255C35.5462 10.255 35.0012 10.19 34.5212 10.06C34.0412 9.93 33.6562 9.74 33.3662 9.49C33.0862 9.24 32.9462 8.95 32.9462 8.62C32.9462 8.36 33.0212 8.14 33.1712 7.96C33.3312 7.77 33.5062 7.63 33.6962 7.54C33.9662 7.76 34.3012 7.96 34.7012 8.14C35.1112 8.31 35.5712 8.395 36.0812 8.395ZM48.7704 6.94H46.5354V5.605C46.5354 5.145 46.4154 4.82 46.1754 4.63C45.9454 4.43 45.6504 4.33 45.2904 4.33C44.9704 4.33 44.6804 4.39 44.4204 4.51C44.1704 4.63 43.9554 4.765 43.7754 4.915L43.7154 3.115C43.9454 2.985 44.2304 2.865 44.5704 2.755C44.9104 2.635 45.2854 2.575 45.6954 2.575C46.6454 2.575 47.3954 2.82 47.9454 3.31C48.4954 3.79 48.7704 4.515 48.7704 5.485V6.94ZM41.8854 6.04H44.1054V9.985C44.0054 10.015 43.8654 10.04 43.6854 10.06C43.5054 10.09 43.3104 10.105 43.1004 10.105C42.6804 10.105 42.3704 10.03 42.1704 9.88C41.9804 9.73 41.8854 9.46 41.8854 9.07V6.04ZM46.5354 6.04H48.7704V9.985C48.6704 10.015 48.5304 10.04 48.3504 10.06C48.1704 10.09 47.9754 10.105 47.7654 10.105C47.3354 10.105 47.0204 10.03 46.8204 9.88C46.6304 9.73 46.5354 9.46 46.5354 9.07V6.04ZM44.1054 7.195H41.8854V0.235C41.9754 0.204999 42.1104 0.175 42.2904 0.145C42.4704 0.115 42.6654 0.0999996 42.8754 0.0999996C43.3054 0.0999996 43.6154 0.175 43.8054 0.324999C44.0054 0.474999 44.1054 0.749999 44.1054 1.15V7.195ZM58.3126 6.4C58.3126 7.18 58.1526 7.86 57.8326 8.44C57.5226 9.01 57.0826 9.45 56.5126 9.76C55.9426 10.07 55.2726 10.225 54.5026 10.225C53.7426 10.225 53.0726 10.075 52.4926 9.775C51.9226 9.465 51.4776 9.025 51.1576 8.455C50.8476 7.875 50.6926 7.19 50.6926 6.4C50.6926 5.61 50.8526 4.935 51.1726 4.375C51.4926 3.805 51.9376 3.365 52.5076 3.055C53.0876 2.735 53.7526 2.575 54.5026 2.575C55.2626 2.575 55.9276 2.735 56.4976 3.055C57.0676 3.365 57.5126 3.81 57.8326 4.39C58.1526 4.96 58.3126 5.63 58.3126 6.4ZM54.5026 4.33C54.0326 4.33 53.6576 4.51 53.3776 4.87C53.1076 5.23 52.9726 5.74 52.9726 6.4C52.9726 7.07 53.1076 7.585 53.3776 7.945C53.6476 8.295 54.0226 8.47 54.5026 8.47C54.9826 8.47 55.3576 8.29 55.6276 7.93C55.8976 7.57 56.0326 7.06 56.0326 6.4C56.0326 5.75 55.8976 5.245 55.6276 4.885C55.3576 4.515 54.9826 4.33 54.5026 4.33ZM63.8045 10.225C63.4245 10.225 63.0845 10.175 62.7845 10.075C62.4845 9.985 62.2245 9.88 62.0045 9.76V7.885C62.1745 8.025 62.3795 8.155 62.6195 8.275C62.8695 8.395 63.1495 8.455 63.4595 8.455C64.0095 8.455 64.4345 8.28 64.7345 7.93C65.0445 7.58 65.1995 7.055 65.1995 6.355C65.1995 5.875 65.1295 5.49 64.9895 5.2C64.8595 4.9 64.6695 4.68 64.4195 4.54C64.1695 4.4 63.8745 4.33 63.5345 4.33C63.3045 4.33 63.0945 4.36 62.9045 4.42C62.7245 4.47 62.5695 4.535 62.4395 4.615V9.205H60.2345V4.3C60.2345 4.05 60.2845 3.845 60.3845 3.685C60.4845 3.515 60.6395 3.365 60.8495 3.235C61.1495 3.045 61.5295 2.89 61.9895 2.77C62.4495 2.64 62.9645 2.575 63.5345 2.575C64.3045 2.575 64.9845 2.71 65.5745 2.98C66.1745 3.24 66.6395 3.65 66.9695 4.21C67.2995 4.76 67.4645 5.475 67.4645 6.355C67.4645 7.205 67.3045 7.915 66.9845 8.485C66.6645 9.055 66.2295 9.49 65.6795 9.79C65.1295 10.08 64.5045 10.225 63.8045 10.225ZM62.4545 8.635V12.67C62.3545 12.7 62.2145 12.73 62.0345 12.76C61.8545 12.79 61.6595 12.805 61.4495 12.805C61.0295 12.805 60.7195 12.73 60.5195 12.58C60.3295 12.43 60.2345 12.155 60.2345 11.755V8.635H62.4545Z" fill="#789885"/>
</svg>
