<svg width="95" height="78" viewBox="0 0 95 78" fill="none" xmlns="http://www.w3.org/2000/svg">
<path d="M41.3105 16.3309H88.771C92.7748 16.3309 95.586 20.2754 94.2791 24.0602L90.0112 47.4424C89.199 49.7952 86.9836 51.3737 84.4949 51.3737H43.4675C40.3188 51.3737 37.8656 48.6447 38.1997 45.5142L41.3105 16.3309Z" fill="#DFAF35"/>
<path d="M87.6592 54.2788C86.5375 57.9854 83.1214 60.5226 79.2485 60.5251L40.16 60.5514C36.5686 60.5514 33.1261 59.0248 30.7156 56.3617C28.3052 53.6994 27.1275 50.1228 27.483 46.5495L30.6235 15.0331C30.9543 11.7133 28.6434 8.63785 25.3622 8.03132L15.5549 6.22078C13.8514 5.90641 12.7256 4.27118 13.04 2.56764C13.3543 0.864093 14.9896 -0.261726 16.6931 0.0526476L26.5004 1.86316C32.9632 3.05564 37.5158 9.11352 36.8649 15.6536L33.745 46.9601C33.5681 48.732 34.0281 50.5433 35.1621 51.916C36.418 53.4369 38.2063 54.2779 40.16 54.2779H87.6592V54.2788Z" fill="#789885"/>
<path d="M44.1276 73.3021C46.5046 70.7173 46.3361 66.6949 43.7512 64.3179C41.1664 61.9409 37.144 62.1095 34.767 64.6943C32.3901 67.2792 32.5586 71.3015 35.1434 73.6785C37.7283 76.0555 41.7507 75.887 44.1276 73.3021Z" fill="#789885"/>
<path d="M73.8076 73.5041C76.2906 71.0211 76.2906 66.9953 73.8076 64.5123C71.3245 62.0292 67.2988 62.0292 64.8157 64.5123C62.3327 66.9953 62.3327 71.0211 64.8157 73.5041C67.2988 75.9871 71.3245 75.9871 73.8076 73.5041Z" fill="#789885"/>
<path d="M53.9555 20.9815L53.0156 30.1444C52.4717 35.4789 56.0565 39.6851 61.3548 39.9287L66.8473 40.1813C66.8909 40.183 66.9337 40.1846 66.9765 40.1863C72.2542 40.3616 77.4627 36.4014 78.8708 31.1163L81.3282 21.8966C81.5496 21.0646 81.0665 20.3116 80.2493 20.2128C80.2065 20.2079 80.1645 20.2046 80.1217 20.2038C79.3465 20.1783 78.5787 20.7535 78.368 21.5428L75.9106 30.7625C74.9197 34.4823 71.2781 37.2795 67.5418 37.1553C67.5073 37.1544 67.4719 37.1528 67.4365 37.1511L61.944 36.8985C58.2102 36.7265 55.6829 33.7622 56.0664 30.0029L57.0062 20.8408C57.0877 20.0474 56.5445 19.4203 55.766 19.3948C55.7232 19.3932 55.6804 19.394 55.636 19.3956C54.7941 19.4351 54.0411 20.1445 53.9555 20.9815Z" fill="white"/>
<path d="M22.3024 34.8518L15.7779 34.8962L15.7335 28.3717C15.717 25.9744 17.6477 24.0182 20.0442 24.0026L26.5687 23.959L26.6131 30.4835C26.6296 32.8791 24.6997 34.8362 22.3024 34.8518Z" fill="#789885"/>
<path d="M14.9847 51.6124L8.05117 51.6593L8.00426 44.7258C7.98698 42.1787 10.0378 40.0991 12.5857 40.0818L19.5192 40.0349L19.5661 46.9684C19.5834 49.5163 17.5318 51.596 14.9847 51.6124Z" fill="#789885"/>
<path d="M4.6663 41.0125L0.0313465 41.0438L7.20858e-05 36.4088C-0.0114495 34.7061 1.35961 33.3161 3.06233 33.3046L7.69729 33.2733L7.72856 37.9083C7.74008 39.611 6.36901 41.001 4.6663 41.0125Z" fill="#789885"/>
</svg>
