<svg width="428" height="413" viewBox="0 0 428 413" fill="none" xmlns="http://www.w3.org/2000/svg">
<path d="M253.755 14.6722C253.755 14.6722 186.169 3.03134 129.366 46.9787C72.5634 90.926 52.6391 163.817 34.8537 222.487C17.0684 281.158 42.2527 334.146 94.4715 352.011C146.69 369.874 172.822 327.601 239.659 315.408C306.496 303.215 326.122 309.516 375.652 264.971C425.183 220.425 420.635 134.008 365.862 78.0115C311.09 22.0161 253.755 14.6722 253.755 14.6722Z" fill="#92E3A9"/>
<path opacity="0.7" d="M253.755 14.6722C253.755 14.6722 186.169 3.03134 129.366 46.9787C72.5634 90.926 52.6391 163.817 34.8537 222.487C17.0684 281.158 42.2527 334.146 94.4715 352.011C146.69 369.874 172.822 327.601 239.659 315.408C306.496 303.215 326.122 309.516 375.652 264.971C425.183 220.425 420.635 134.008 365.862 78.0115C311.09 22.0161 253.755 14.6722 253.755 14.6722Z" fill="white"/>
<path d="M17.4897 380.02H419.409" stroke="#263238" stroke-miterlimit="10" stroke-linecap="round" stroke-linejoin="round"/>
<path d="M302.487 43.0586H144.02V321.137H302.487V43.0586Z" fill="white" stroke="#263238" stroke-miterlimit="10" stroke-linecap="round" stroke-linejoin="round"/>
<path d="M204.529 76.8965H180.878C179.267 76.8965 177.962 75.66 177.962 74.1344V69.6227C177.962 68.0971 179.267 66.8606 180.878 66.8606H204.529C206.14 66.8606 207.446 68.0971 207.446 69.6227V74.1344C207.445 75.66 206.14 76.8965 204.529 76.8965Z" fill="#92E3A9" stroke="#263238" stroke-miterlimit="10" stroke-linecap="round" stroke-linejoin="round"/>
<path d="M153.964 229.844H293.461" stroke="#263238" stroke-miterlimit="10" stroke-linecap="round" stroke-linejoin="round"/>
<path d="M237.698 76.8965H214.047C212.437 76.8965 211.131 75.66 211.131 74.1344V69.6227C211.131 68.0971 212.437 66.8606 214.047 66.8606H237.698C239.309 66.8606 240.614 68.0971 240.614 69.6227V74.1344C240.615 75.66 239.309 76.8965 237.698 76.8965Z" fill="#92E3A9" stroke="#263238" stroke-miterlimit="10" stroke-linecap="round" stroke-linejoin="round"/>
<path d="M270.868 76.8965H247.217C245.607 76.8965 244.3 75.66 244.3 74.1344V69.6227C244.3 68.0971 245.606 66.8606 247.217 66.8606H270.868C272.479 66.8606 273.785 68.0971 273.785 69.6227V74.1344C273.784 75.66 272.479 76.8965 270.868 76.8965Z" fill="#92E3A9" stroke="#263238" stroke-miterlimit="10" stroke-linecap="round" stroke-linejoin="round"/>
<path d="M302.487 43.0586H144.02V63.4963H302.487V43.0586Z" fill="#92E3A9" stroke="#263238" stroke-miterlimit="10" stroke-linecap="round" stroke-linejoin="round"/>
<path d="M282.603 56.8526C282.603 55.4311 281.387 54.2788 279.886 54.2788C278.385 54.2788 277.169 55.4311 277.169 56.8526C277.169 58.2742 278.385 59.4264 279.886 59.4264C281.387 59.4264 282.603 58.2742 282.603 56.8526Z" fill="white" stroke="#263238" stroke-miterlimit="10" stroke-linecap="round" stroke-linejoin="round"/>
<path d="M289.978 56.8526C289.978 55.4311 288.761 54.2788 287.26 54.2788C285.76 54.2788 284.543 55.4311 284.543 56.8526C284.543 58.2742 285.76 59.4264 287.26 59.4264C288.761 59.4264 289.978 58.2742 289.978 56.8526Z" fill="white" stroke="#263238" stroke-miterlimit="10" stroke-linecap="round" stroke-linejoin="round"/>
<path d="M297.352 56.8526C297.352 55.4311 296.136 54.2788 294.635 54.2788C293.134 54.2788 291.918 55.4311 291.918 56.8526C291.918 58.2742 293.134 59.4264 294.635 59.4264C296.136 59.4264 297.352 58.2742 297.352 56.8526Z" fill="white" stroke="#263238" stroke-miterlimit="10" stroke-linecap="round" stroke-linejoin="round"/>
<path d="M302.487 299.255H144.02V321.137H302.487V299.255Z" fill="#92E3A9" stroke="#263238" stroke-miterlimit="10" stroke-linecap="round" stroke-linejoin="round"/>
<path opacity="0.04" d="M254.301 43.0586L144.02 225.302V290.505L293.758 43.0586H254.301Z" fill="black"/>
<path opacity="0.04" d="M302.487 156.956L299.867 155.164L204.548 314.664L207.146 321.137H302.487V156.956Z" fill="black"/>
<path d="M307.245 97.7703C308.326 97.7703 309.202 96.9401 309.202 95.9159V77.3747C309.202 76.3504 308.326 75.5203 307.245 75.5203C307.119 75.5203 306.997 75.5335 306.878 75.555V40.8729C306.878 34.2707 301.227 28.9182 294.256 28.9182H155.165C148.195 28.9182 142.544 34.2707 142.544 40.8729V320.74C142.544 327.342 148.195 332.695 155.165 332.695H294.256C301.226 332.695 306.878 327.342 306.878 320.74V150.477C306.997 150.499 307.119 150.512 307.245 150.512C308.326 150.512 309.202 149.682 309.202 148.658V130.116C309.202 129.091 308.326 128.261 307.245 128.261C307.119 128.261 306.997 128.274 306.878 128.296V124.106C306.997 124.127 307.119 124.14 307.245 124.14C308.326 124.14 309.202 123.31 309.202 122.286V103.744C309.202 102.72 308.326 101.89 307.245 101.89C307.119 101.89 306.997 101.903 306.878 101.924V97.7339C306.996 97.757 307.119 97.7703 307.245 97.7703ZM299.569 314.664H149.852V49.5476H299.569V314.664Z" fill="#263238"/>
<path d="M246.675 235.966H203.73V293.107H246.675V235.966Z" fill="white" stroke="#263238" stroke-miterlimit="10" stroke-linecap="round" stroke-linejoin="round"/>
<path d="M246.675 252.278L240.491 245.401L227.194 267.318L218.417 262.028L203.73 293.107H246.675V252.278Z" fill="#92E3A9" stroke="#263238" stroke-miterlimit="10" stroke-linecap="round" stroke-linejoin="round"/>
<path d="M218.683 246.661C218.683 249.027 216.659 250.944 214.161 250.944C211.665 250.944 209.64 249.027 209.64 246.661C209.64 244.296 211.664 242.378 214.161 242.378C216.659 242.378 218.683 244.295 218.683 246.661Z" fill="#92E3A9" stroke="#263238" stroke-miterlimit="10" stroke-linecap="round" stroke-linejoin="round"/>
<path d="M293.747 235.966H250.802V293.107H293.747V235.966Z" fill="white" stroke="#263238" stroke-miterlimit="10" stroke-linecap="round" stroke-linejoin="round"/>
<path d="M293.747 252.278L287.564 245.401L274.266 267.318L265.49 262.028L250.802 293.107H293.747V252.278Z" fill="#92E3A9" stroke="#263238" stroke-miterlimit="10" stroke-linecap="round" stroke-linejoin="round"/>
<path d="M265.756 246.661C265.756 249.027 263.732 250.944 261.235 250.944C258.738 250.944 256.713 249.027 256.713 246.661C256.713 244.296 258.737 242.378 261.235 242.378C263.731 242.378 265.756 244.295 265.756 246.661Z" fill="#92E3A9" stroke="#263238" stroke-miterlimit="10" stroke-linecap="round" stroke-linejoin="round"/>
<path d="M199.602 235.966H156.656V293.107H199.602V235.966Z" fill="white" stroke="#263238" stroke-miterlimit="10" stroke-linecap="round" stroke-linejoin="round"/>
<path d="M178.08 250.319C172.21 250.319 167.451 254.827 167.451 260.387C167.451 265.948 178.08 276.726 178.08 276.726C178.08 276.726 188.709 265.948 188.709 260.387C188.709 254.827 183.95 250.319 178.08 250.319ZM178.08 264.345C175.773 264.345 173.901 262.574 173.901 260.387C173.901 258.201 175.772 256.429 178.08 256.429C180.387 256.429 182.258 258.201 182.258 260.387C182.258 262.574 180.388 264.345 178.08 264.345Z" fill="#92E3A9" stroke="#263238" stroke-miterlimit="10" stroke-linecap="round" stroke-linejoin="round"/>
<path d="M167.924 236.569V243.003H192.919V266.936H199.166" stroke="#263238" stroke-miterlimit="10" stroke-linecap="round" stroke-linejoin="round"/>
<path d="M167.925 243.002L157.057 254.841" stroke="#263238" stroke-miterlimit="10" stroke-linecap="round" stroke-linejoin="round"/>
<path d="M192.919 266.936V279.031H182.594V292.671" stroke="#263238" stroke-miterlimit="10" stroke-linecap="round" stroke-linejoin="round"/>
<path d="M157.329 275.943H164.392V284.435H182.323H199.439" stroke="#263238" stroke-miterlimit="10" stroke-linecap="round" stroke-linejoin="round"/>
<path d="M170.641 284.692V292.671" stroke="#263238" stroke-miterlimit="10" stroke-linecap="round" stroke-linejoin="round"/>
<path d="M184.089 251.367L192.919 243.003V236.569" stroke="#263238" stroke-miterlimit="10" stroke-linecap="round" stroke-linejoin="round"/>
<path d="M157.057 265.649H169.011" stroke="#263238" stroke-miterlimit="10" stroke-linecap="round" stroke-linejoin="round"/>
<path d="M282.418 137.209H167.448V210.948H282.418V137.209Z" fill="white" stroke="#263238" stroke-miterlimit="10" stroke-linecap="round" stroke-linejoin="round"/>
<path d="M282.418 196.472H167.448V210.948H282.418V196.472Z" fill="#92E3A9" stroke="#263238" stroke-miterlimit="10" stroke-linecap="round" stroke-linejoin="round"/>
<path d="M281.212 139.342H242.392V181.074H281.212V139.342Z" fill="white" stroke="#263238" stroke-miterlimit="10" stroke-linecap="round" stroke-linejoin="round"/>
<path d="M207.514 139.342H168.694V181.074H207.514V139.342Z" fill="white" stroke="#263238" stroke-miterlimit="10" stroke-linecap="round" stroke-linejoin="round"/>
<path d="M281.212 158.865L242.392 171.71V139.342H281.212V158.865Z" fill="#263238" stroke="#263238" stroke-miterlimit="10" stroke-linecap="round" stroke-linejoin="round"/>
<path d="M207.514 158.865L168.694 174.13V139.342H207.514V158.865Z" fill="#263238" stroke="#263238" stroke-miterlimit="10" stroke-linecap="round" stroke-linejoin="round"/>
<path d="M240.801 137.209H209.065V210.948H240.801V137.209Z" fill="#92E3A9" stroke="#263238" stroke-miterlimit="10" stroke-linecap="round" stroke-linejoin="round"/>
<path d="M210.861 177.482H239.005V208.165H210.861V177.482ZM210.861 139.992V170.676H239.005V139.992H210.861Z" fill="white" stroke="#263238" stroke-miterlimit="10" stroke-linecap="round" stroke-linejoin="round"/>
<path d="M239.005 204.665V200.886L219.235 208.165H229.338L239.005 204.665Z" fill="#263238"/>
<path d="M210.861 161.76L239.005 150.128V139.992H210.861V161.76Z" fill="#263238"/>
<path d="M227.692 170.676L239.005 166.579V163.19L218.675 170.676H227.692Z" fill="#263238"/>
<path d="M210.861 203.642L239.005 192.708V177.482H210.861V203.642Z" fill="#263238"/>
<path d="M165.846 138.667C165.836 138.805 165.824 138.941 165.824 139.08C165.824 142.517 168.765 145.304 172.394 145.304C176.022 145.304 178.963 142.517 178.963 139.08C178.963 138.941 178.951 138.805 178.941 138.667H165.846Z" fill="white" stroke="#263238" stroke-miterlimit="10" stroke-linecap="round" stroke-linejoin="round"/>
<path d="M178.228 138.667C178.219 138.805 178.206 138.941 178.206 139.08C178.206 142.517 181.148 145.304 184.776 145.304C188.404 145.304 191.346 142.517 191.346 139.08C191.346 138.941 191.333 138.805 191.324 138.667H178.228Z" fill="#92E3A9" stroke="#263238" stroke-miterlimit="10" stroke-linecap="round" stroke-linejoin="round"/>
<path d="M191.396 138.667C191.387 138.805 191.374 138.941 191.374 139.08C191.374 142.517 194.316 145.304 197.944 145.304C201.572 145.304 204.514 142.517 204.514 139.08C204.514 138.941 204.501 138.805 204.492 138.667H191.396Z" fill="white" stroke="#263238" stroke-miterlimit="10" stroke-linecap="round" stroke-linejoin="round"/>
<path d="M204.563 138.667C204.554 138.805 204.542 138.941 204.542 139.08C204.542 142.517 207.483 145.304 211.111 145.304C214.74 145.304 217.681 142.517 217.681 139.08C217.681 138.941 217.669 138.805 217.659 138.667H204.563Z" fill="#92E3A9" stroke="#263238" stroke-miterlimit="10" stroke-linecap="round" stroke-linejoin="round"/>
<path d="M217.731 138.667C217.721 138.805 217.709 138.941 217.709 139.08C217.709 142.517 220.65 145.304 224.278 145.304C227.907 145.304 230.848 142.517 230.848 139.08C230.848 138.941 230.836 138.805 230.826 138.667H217.731Z" fill="white" stroke="#263238" stroke-miterlimit="10" stroke-linecap="round" stroke-linejoin="round"/>
<path d="M231.055 138.667C231.045 138.805 231.033 138.941 231.033 139.08C231.033 142.517 233.974 145.304 237.603 145.304C241.231 145.304 244.172 142.517 244.172 139.08C244.172 138.941 244.16 138.805 244.15 138.667H231.055Z" fill="#92E3A9" stroke="#263238" stroke-miterlimit="10" stroke-linecap="round" stroke-linejoin="round"/>
<path d="M244.223 138.667C244.213 138.805 244.201 138.941 244.201 139.08C244.201 142.517 247.142 145.304 250.771 145.304C254.399 145.304 257.34 142.517 257.34 139.08C257.34 138.941 257.328 138.805 257.318 138.667H244.223Z" fill="white" stroke="#263238" stroke-miterlimit="10" stroke-linecap="round" stroke-linejoin="round"/>
<path d="M258.017 138.667C258.007 138.805 257.995 138.941 257.995 139.08C257.995 142.517 260.936 145.304 264.565 145.304C268.193 145.304 271.134 142.517 271.134 139.08C271.134 138.941 271.122 138.805 271.113 138.667H258.017Z" fill="#92E3A9" stroke="#263238" stroke-miterlimit="10" stroke-linecap="round" stroke-linejoin="round"/>
<path d="M271.184 138.667C271.175 138.805 271.162 138.941 271.162 139.08C271.162 142.517 274.104 145.304 277.732 145.304C281.36 145.304 284.302 142.517 284.302 139.08C284.302 138.941 284.289 138.805 284.28 138.667H271.184Z" fill="white" stroke="#263238" stroke-miterlimit="10" stroke-linecap="round" stroke-linejoin="round"/>
<path d="M239.783 174.495C239.783 173.488 238.921 172.671 237.857 172.671C236.794 172.671 235.932 173.488 235.932 174.495C235.932 175.502 236.793 176.319 237.857 176.319C238.921 176.319 239.783 175.503 239.783 174.495Z" fill="white" stroke="#263238" stroke-miterlimit="10" stroke-linecap="round" stroke-linejoin="round"/>
<path d="M237.857 174.96C238.128 174.96 238.348 174.752 238.348 174.495C238.348 174.238 238.128 174.03 237.857 174.03C237.586 174.03 237.366 174.238 237.366 174.495C237.366 174.752 237.586 174.96 237.857 174.96Z" fill="white" stroke="#263238" stroke-miterlimit="10" stroke-linecap="round" stroke-linejoin="round"/>
<path d="M272.865 118.404L177.737 118.893L165.846 138.778H284.466L272.865 118.404Z" fill="white" stroke="#263238" stroke-miterlimit="10" stroke-linecap="round" stroke-linejoin="round"/>
<path d="M262.193 118.458L177.737 118.893L165.846 138.778H271.088L262.193 118.458Z" fill="#92E3A9" stroke="#263238" stroke-miterlimit="10" stroke-linecap="round" stroke-linejoin="round"/>
<path d="M251.42 118.514L177.737 118.893L165.846 138.778H257.601L251.42 118.514Z" fill="white" stroke="#263238" stroke-miterlimit="10" stroke-linecap="round" stroke-linejoin="round"/>
<path d="M240.885 118.568L177.737 118.893L165.846 138.778H244.429L240.885 118.568Z" fill="#92E3A9" stroke="#263238" stroke-miterlimit="10" stroke-linecap="round" stroke-linejoin="round"/>
<path d="M230.035 118.624L177.737 118.893L165.846 138.778H230.884L230.035 118.624Z" fill="white" stroke="#263238" stroke-miterlimit="10" stroke-linecap="round" stroke-linejoin="round"/>
<path d="M219.353 118.679L177.737 118.893L165.846 138.778H217.564L219.353 118.679Z" fill="#92E3A9" stroke="#263238" stroke-miterlimit="10" stroke-linecap="round" stroke-linejoin="round"/>
<path d="M208.917 118.733L177.737 118.893L165.846 138.778H204.568L208.917 118.733Z" fill="white" stroke="#263238" stroke-miterlimit="10" stroke-linecap="round" stroke-linejoin="round"/>
<path d="M198.374 118.786L177.737 118.893L165.846 138.778H191.459L198.374 118.786Z" fill="#92E3A9" stroke="#263238" stroke-miterlimit="10" stroke-linecap="round" stroke-linejoin="round"/>
<path d="M187.879 118.84L177.737 118.893L165.846 138.778H178.424L187.879 118.84Z" fill="white" stroke="#263238" stroke-miterlimit="10" stroke-linecap="round" stroke-linejoin="round"/>
<path d="M354.52 265.067L364.512 355.752" stroke="#263238" stroke-width="2" stroke-miterlimit="10"/>
<path d="M362.901 338.396L358.372 333.865" stroke="#263238" stroke-width="2" stroke-miterlimit="10"/>
<path d="M359.748 335.223C359.748 335.223 359.878 333.218 357.946 331.584C356.783 330.6 350.664 328.161 350.084 330.203C349.452 332.424 355.715 336.783 359.748 335.223Z" fill="#92E3A9" stroke="#263238" stroke-miterlimit="10"/>
<path d="M359.748 335.223L353.923 331.785" stroke="#263238" stroke-width="0.5" stroke-miterlimit="10"/>
<path d="M364.037 348.711L359.508 344.178" stroke="#263238" stroke-width="2" stroke-miterlimit="10"/>
<path d="M360.884 345.536C360.884 345.536 361.014 343.532 359.082 341.897C357.919 340.913 351.801 338.475 351.22 340.517C350.588 342.737 356.851 347.098 360.884 345.536Z" fill="#92E3A9" stroke="#263238" stroke-miterlimit="10"/>
<path d="M360.884 345.536L355.059 342.098" stroke="#263238" stroke-width="0.5" stroke-miterlimit="10"/>
<path d="M360.128 313.23L355.599 308.698" stroke="#263238" stroke-width="2" stroke-miterlimit="10"/>
<path d="M356.975 310.056C356.975 310.056 357.105 308.052 355.173 306.417C354.01 305.433 347.891 302.995 347.311 305.037C346.679 307.256 352.942 311.617 356.975 310.056Z" fill="#92E3A9" stroke="#263238" stroke-miterlimit="10"/>
<path d="M356.975 310.057L351.15 306.618" stroke="#263238" stroke-width="0.5" stroke-miterlimit="10"/>
<path d="M361.265 323.543L356.735 319.012" stroke="#263238" stroke-width="2" stroke-miterlimit="10"/>
<path d="M358.111 320.37C358.111 320.37 358.241 318.365 356.309 316.731C355.146 315.747 349.028 313.308 348.447 315.35C347.816 317.57 354.078 321.93 358.111 320.37Z" fill="#92E3A9" stroke="#263238" stroke-miterlimit="10"/>
<path d="M358.111 320.37L352.287 316.931" stroke="#263238" stroke-width="0.5" stroke-miterlimit="10"/>
<path d="M358.283 296.476L353.753 291.945" stroke="#263238" stroke-width="2" stroke-miterlimit="10"/>
<path d="M355.13 293.303C355.13 293.303 355.26 291.298 353.327 289.663C352.165 288.679 346.046 286.241 345.466 288.283C344.833 290.503 351.096 294.863 355.13 293.303Z" fill="#92E3A9" stroke="#263238" stroke-miterlimit="10"/>
<path d="M355.13 293.302L349.305 289.864" stroke="#263238" stroke-width="0.5" stroke-miterlimit="10"/>
<path d="M356.429 279.65L351.9 275.118" stroke="#263238" stroke-width="2" stroke-miterlimit="10"/>
<path d="M353.276 276.476C353.276 276.476 353.406 274.471 351.474 272.837C350.311 271.853 344.192 269.415 343.612 271.456C342.979 273.676 349.242 278.036 353.276 276.476Z" fill="#92E3A9" stroke="#263238" stroke-miterlimit="10"/>
<path d="M353.276 276.476L347.451 273.038" stroke="#263238" stroke-width="0.5" stroke-miterlimit="10"/>
<path d="M362.14 332.295L365.584 326.974" stroke="#263238" stroke-width="2" stroke-miterlimit="10"/>
<path d="M364.534 328.573C364.534 328.573 363.97 326.637 365.504 324.659C366.427 323.47 371.883 319.887 372.896 321.771C373.997 323.819 368.82 329.31 364.534 328.573Z" fill="#92E3A9" stroke="#263238" stroke-miterlimit="10"/>
<path d="M364.534 328.573L369.779 323.824" stroke="#263238" stroke-width="0.5" stroke-miterlimit="10"/>
<path d="M359.15 305.154L362.594 299.835" stroke="#263238" stroke-width="2" stroke-miterlimit="10"/>
<path d="M361.543 301.432C361.543 301.432 360.98 299.496 362.514 297.519C363.437 296.329 368.893 292.747 369.906 294.63C371.007 296.679 365.83 302.171 361.543 301.432Z" fill="#92E3A9" stroke="#263238" stroke-miterlimit="10"/>
<path d="M361.543 301.432L366.789 296.683" stroke="#263238" stroke-width="0.5" stroke-miterlimit="10"/>
<path d="M357.836 293.228L361.28 287.908" stroke="#263238" stroke-width="2" stroke-miterlimit="10"/>
<path d="M360.229 289.506C360.229 289.506 359.665 287.569 361.2 285.592C362.123 284.403 367.579 280.82 368.592 282.703C369.693 284.752 364.516 290.243 360.229 289.506Z" fill="#92E3A9" stroke="#263238" stroke-miterlimit="10"/>
<path d="M360.229 289.506L365.474 284.757" stroke="#263238" stroke-width="0.5" stroke-miterlimit="10"/>
<path d="M355.909 275.742L359.354 270.422" stroke="#263238" stroke-width="2" stroke-miterlimit="10"/>
<path d="M358.303 272.02C358.303 272.02 357.74 270.084 359.274 268.106C360.197 266.917 365.652 263.335 366.666 265.218C367.767 267.267 362.59 272.758 358.303 272.02Z" fill="#92E3A9" stroke="#263238" stroke-miterlimit="10"/>
<path d="M358.303 272.02L363.548 267.271" stroke="#263238" stroke-width="0.5" stroke-miterlimit="10"/>
<path d="M354.437 264.563C354.437 264.563 353.873 262.627 355.407 260.649C356.331 259.46 361.786 255.877 362.799 257.761C363.9 259.81 358.723 265.301 354.437 264.563Z" fill="#92E3A9" stroke="#263238" stroke-miterlimit="10"/>
<path d="M354.437 264.563L359.682 259.814" stroke="#263238" stroke-width="0.5" stroke-miterlimit="10"/>
<path d="M354.74 264.768C354.74 264.768 352.648 265.096 350.733 263.443C349.581 262.448 346.392 256.934 348.476 256.177C350.743 255.355 355.964 260.807 354.74 264.768Z" fill="#92E3A9" stroke="#263238" stroke-miterlimit="10"/>
<path d="M354.74 264.768L350.305 259.328" stroke="#263238" stroke-width="0.5" stroke-miterlimit="10"/>
<path d="M380.872 277.556L370.938 368.246" stroke="#263238" stroke-width="2" stroke-miterlimit="10"/>
<path d="M373.134 350.949L369.687 345.631" stroke="#263238" stroke-width="2" stroke-miterlimit="10"/>
<path d="M370.739 347.228C370.739 347.228 371.301 345.292 369.766 343.315C368.841 342.126 363.384 338.547 362.372 340.431C361.271 342.48 366.452 347.969 370.739 347.228Z" fill="#92E3A9" stroke="#263238" stroke-miterlimit="10"/>
<path d="M370.739 347.228L365.786 342.727" stroke="#263238" stroke-width="0.5" stroke-miterlimit="10"/>
<path d="M375.891 325.781L372.444 320.463" stroke="#263238" stroke-width="2" stroke-miterlimit="10"/>
<path d="M373.495 322.06C373.495 322.06 374.058 320.124 372.522 318.147C371.598 316.958 366.141 313.378 365.128 315.263C364.029 317.312 369.209 322.8 373.495 322.06Z" fill="#92E3A9" stroke="#263238" stroke-miterlimit="10"/>
<path d="M373.495 322.06L368.543 317.559" stroke="#263238" stroke-width="0.5" stroke-miterlimit="10"/>
<path d="M374.761 336.095L371.314 330.776" stroke="#263238" stroke-width="2" stroke-miterlimit="10"/>
<path d="M372.366 332.374C372.366 332.374 372.928 330.438 371.393 328.461C370.468 327.272 365.011 323.693 363.999 325.577C362.899 327.626 368.079 333.114 372.366 332.374Z" fill="#92E3A9" stroke="#263238" stroke-miterlimit="10"/>
<path d="M372.366 332.374L367.413 327.873" stroke="#263238" stroke-width="0.5" stroke-miterlimit="10"/>
<path d="M377.727 309.026L374.279 303.708" stroke="#263238" stroke-width="2" stroke-miterlimit="10"/>
<path d="M375.331 305.305C375.331 305.305 375.893 303.369 374.358 301.392C373.433 300.203 367.976 296.624 366.964 298.508C365.864 300.557 371.045 306.045 375.331 305.305Z" fill="#92E3A9" stroke="#263238" stroke-miterlimit="10"/>
<path d="M375.331 305.305L370.378 300.804" stroke="#263238" stroke-width="0.5" stroke-miterlimit="10"/>
<path d="M379.57 292.198L376.122 286.88" stroke="#263238" stroke-width="2" stroke-miterlimit="10"/>
<path d="M377.174 288.477C377.174 288.477 377.736 286.541 376.201 284.564C375.277 283.375 369.82 279.796 368.807 281.68C367.708 283.73 372.888 289.218 377.174 288.477Z" fill="#92E3A9" stroke="#263238" stroke-miterlimit="10"/>
<path d="M377.174 288.477L372.221 283.976" stroke="#263238" stroke-width="0.5" stroke-miterlimit="10"/>
<path d="M373.716 344.829L378.242 340.294" stroke="#263238" stroke-width="2" stroke-miterlimit="10"/>
<path d="M376.867 341.653C376.867 341.653 376.736 339.648 378.668 338.013C379.829 337.029 385.946 334.587 386.529 336.628C387.161 338.848 380.901 343.212 376.867 341.653Z" fill="#92E3A9" stroke="#263238" stroke-miterlimit="10"/>
<path d="M376.867 341.653L383.032 338.03" stroke="#263238" stroke-width="0.5" stroke-miterlimit="10"/>
<path d="M376.689 317.687L381.215 313.153" stroke="#263238" stroke-width="2" stroke-miterlimit="10"/>
<path d="M379.84 314.512C379.84 314.512 379.709 312.507 381.64 310.872C382.803 309.887 388.92 307.446 389.502 309.486C390.135 311.706 383.874 316.07 379.84 314.512Z" fill="#92E3A9" stroke="#263238" stroke-miterlimit="10"/>
<path d="M379.84 314.512L386.005 310.887" stroke="#263238" stroke-width="0.5" stroke-miterlimit="10"/>
<path d="M377.995 305.759L382.522 301.225" stroke="#263238" stroke-width="2" stroke-miterlimit="10"/>
<path d="M381.147 302.583C381.147 302.583 381.016 300.579 382.948 298.943C384.11 297.959 390.227 295.517 390.809 297.558C391.441 299.778 385.181 304.142 381.147 302.583Z" fill="#92E3A9" stroke="#263238" stroke-miterlimit="10"/>
<path d="M381.147 302.583L387.312 298.96" stroke="#263238" stroke-width="0.5" stroke-miterlimit="10"/>
<path d="M379.911 288.273L384.438 283.739" stroke="#263238" stroke-width="2" stroke-miterlimit="10"/>
<path d="M383.063 285.098C383.063 285.098 382.932 283.093 384.863 281.458C386.026 280.474 392.143 278.032 392.724 280.073C393.357 282.292 387.097 286.656 383.063 285.098Z" fill="#92E3A9" stroke="#263238" stroke-miterlimit="10"/>
<path d="M383.063 285.098L389.227 281.473" stroke="#263238" stroke-width="0.5" stroke-miterlimit="10"/>
<path d="M380.899 277.046C380.899 277.046 380.768 275.041 382.7 273.406C383.861 272.422 389.979 269.981 390.561 272.021C391.194 274.241 384.934 278.605 380.899 277.046Z" fill="#92E3A9" stroke="#263238" stroke-miterlimit="10"/>
<path d="M380.899 277.046L387.064 273.422" stroke="#263238" stroke-width="0.5" stroke-miterlimit="10"/>
<path d="M381.152 277.306C381.152 277.306 379.034 277.219 377.519 275.228C376.608 274.03 374.686 268.012 376.89 267.678C379.287 267.314 383.212 273.669 381.152 277.306Z" fill="#92E3A9" stroke="#263238" stroke-miterlimit="10"/>
<path d="M381.152 277.306L377.994 271.119" stroke="#263238" stroke-width="0.5" stroke-miterlimit="10"/>
<path d="M369.487 240.626V355.311" stroke="#263238" stroke-width="2" stroke-miterlimit="10"/>
<path d="M369.584 338.066L365.576 333.114" stroke="#263238" stroke-width="2" stroke-miterlimit="10"/>
<path d="M366.796 334.599C366.796 334.599 367.144 332.619 365.401 330.802C364.353 329.709 358.534 326.683 357.733 328.656C356.862 330.803 362.613 335.755 366.796 334.599Z" fill="#92E3A9" stroke="#263238" stroke-miterlimit="10"/>
<path d="M366.796 334.599L361.379 330.607" stroke="#263238" stroke-width="0.5" stroke-miterlimit="10"/>
<path d="M369.584 316.514L365.576 311.562" stroke="#263238" stroke-width="2" stroke-miterlimit="10"/>
<path d="M366.796 313.047C366.796 313.047 367.144 311.067 365.401 309.25C364.353 308.157 358.534 305.131 357.733 307.104C356.862 309.251 362.613 314.203 366.796 313.047Z" fill="#92E3A9" stroke="#263238" stroke-miterlimit="10"/>
<path d="M366.796 313.047L361.379 309.055" stroke="#263238" stroke-width="0.5" stroke-miterlimit="10"/>
<path d="M369.584 291.21L365.576 286.259" stroke="#263238" stroke-width="2" stroke-miterlimit="10"/>
<path d="M366.796 287.744C366.796 287.744 367.144 285.763 365.401 283.946C364.353 282.854 358.534 279.827 357.733 281.801C356.862 283.947 362.613 288.899 366.796 287.744Z" fill="#92E3A9" stroke="#263238" stroke-miterlimit="10"/>
<path d="M366.796 287.744L361.379 283.751" stroke="#263238" stroke-width="0.5" stroke-miterlimit="10"/>
<path d="M369.584 274.367L365.576 269.414" stroke="#263238" stroke-width="2" stroke-miterlimit="10"/>
<path d="M366.796 270.9C366.796 270.9 367.144 268.919 365.401 267.103C364.353 266.01 358.534 262.983 357.733 264.957C356.862 267.103 362.613 272.055 366.796 270.9Z" fill="#92E3A9" stroke="#263238" stroke-miterlimit="10"/>
<path d="M366.796 270.9L361.379 266.907" stroke="#263238" stroke-width="0.5" stroke-miterlimit="10"/>
<path d="M369.584 257.449L365.576 252.496" stroke="#263238" stroke-width="2" stroke-miterlimit="10"/>
<path d="M366.796 253.981C366.796 253.981 367.144 252 365.401 250.184C364.353 249.091 358.534 246.065 357.733 248.038C356.862 250.185 362.613 255.137 366.796 253.981Z" fill="#92E3A9" stroke="#263238" stroke-miterlimit="10"/>
<path d="M366.796 253.981L361.379 249.989" stroke="#263238" stroke-width="0.5" stroke-miterlimit="10"/>
<path d="M369.495 344.648L373.504 339.695" stroke="#263238" stroke-width="2" stroke-miterlimit="10"/>
<path d="M372.284 341.181C372.284 341.181 371.936 339.2 373.678 337.384C374.726 336.291 380.545 333.264 381.347 335.238C382.218 337.384 376.466 342.336 372.284 341.181Z" fill="#92E3A9" stroke="#263238" stroke-miterlimit="10"/>
<path d="M372.284 341.181L378.021 336.973" stroke="#263238" stroke-width="0.5" stroke-miterlimit="10"/>
<path d="M369.495 310.37L373.504 305.417" stroke="#263238" stroke-width="2" stroke-miterlimit="10"/>
<path d="M372.284 306.904C372.284 306.904 371.936 304.923 373.678 303.106C374.726 302.014 380.545 298.987 381.347 300.96C382.218 303.106 376.466 308.059 372.284 306.904Z" fill="#92E3A9" stroke="#263238" stroke-miterlimit="10"/>
<path d="M372.284 306.903L378.021 302.696" stroke="#263238" stroke-width="0.5" stroke-miterlimit="10"/>
<path d="M369.495 293.452L373.504 288.499" stroke="#263238" stroke-width="2" stroke-miterlimit="10"/>
<path d="M372.284 289.985C372.284 289.985 371.936 288.005 373.678 286.188C374.726 285.095 380.545 282.069 381.347 284.042C382.218 286.188 376.466 291.141 372.284 289.985Z" fill="#92E3A9" stroke="#263238" stroke-miterlimit="10"/>
<path d="M372.284 289.985L378.021 285.778" stroke="#263238" stroke-width="0.5" stroke-miterlimit="10"/>
<path d="M369.495 271.091L373.504 266.138" stroke="#263238" stroke-width="2" stroke-miterlimit="10"/>
<path d="M372.284 267.624C372.284 267.624 371.936 265.643 373.678 263.827C374.726 262.734 380.545 259.708 381.347 261.681C382.218 263.828 376.466 268.78 372.284 267.624Z" fill="#92E3A9" stroke="#263238" stroke-miterlimit="10"/>
<path d="M372.284 267.624L378.021 263.416" stroke="#263238" stroke-width="0.5" stroke-miterlimit="10"/>
<path d="M369.495 253.511L373.504 248.558" stroke="#263238" stroke-width="2" stroke-miterlimit="10"/>
<path d="M372.284 250.044C372.284 250.044 371.936 248.063 373.678 246.247C374.726 245.154 380.545 242.128 381.347 244.101C382.218 246.247 376.466 251.2 372.284 250.044Z" fill="#92E3A9" stroke="#263238" stroke-miterlimit="10"/>
<path d="M372.284 250.044L378.021 245.836" stroke="#263238" stroke-width="0.5" stroke-miterlimit="10"/>
<path d="M369.256 242.247C369.256 242.247 368.907 240.266 370.65 238.45C371.698 237.358 377.517 234.33 378.318 236.304C379.189 238.45 373.439 243.402 369.256 242.247Z" fill="#92E3A9" stroke="#263238" stroke-miterlimit="10"/>
<path d="M369.255 242.247L374.992 238.04" stroke="#263238" stroke-width="0.5" stroke-miterlimit="10"/>
<path d="M369.535 242.48C369.535 242.48 367.419 242.601 365.695 240.769C364.658 239.666 362.09 233.869 364.247 233.32C366.591 232.725 371.187 238.662 369.535 242.48Z" fill="#92E3A9" stroke="#263238" stroke-miterlimit="10"/>
<path d="M369.535 242.48L365.72 236.635" stroke="#263238" stroke-width="0.5" stroke-miterlimit="10"/>
<path d="M374.468 385.055H361.646L360.044 354.38H376.071L374.468 385.055Z" fill="#263238" stroke="#263238" stroke-miterlimit="10"/>
<path d="M379.176 130.331H334.174C331.427 130.331 329.201 132.44 329.201 135.042V161.9C329.201 164.502 331.427 166.611 334.174 166.611H335.145L318.114 182.392L344.915 166.611H379.176C381.923 166.611 384.149 164.502 384.149 161.9V135.042C384.149 132.44 381.923 130.331 379.176 130.331Z" fill="white" stroke="#263238" stroke-miterlimit="10" stroke-linecap="round" stroke-linejoin="round"/>
<path d="M371.74 143.915C371.74 145.97 370.915 148.019 369.259 149.589L356.455 161.717L344.476 150.364L343.658 149.589C340.352 146.457 340.352 141.373 343.658 138.241C345.314 136.673 347.484 135.891 349.648 135.891C351.818 135.891 353.987 136.673 355.643 138.241L356.461 139.016L357.272 138.241C360.585 135.103 365.946 135.103 369.258 138.241C370.915 139.81 371.74 141.859 371.74 143.915Z" fill="#92E3A9" stroke="#263238" stroke-miterlimit="10" stroke-linecap="round" stroke-linejoin="round"/>
<path d="M412.146 192.945H332.807C328.965 192.945 325.852 195.895 325.852 199.533V210.789C325.852 213.386 327.443 215.626 329.749 216.699L314.227 231.053L339.58 217.378H412.146C415.987 217.378 419.101 214.428 419.101 210.789V199.534C419.101 195.895 415.987 192.945 412.146 192.945Z" fill="#92E3A9" stroke="#263238" stroke-miterlimit="10" stroke-linecap="round" stroke-linejoin="round"/>
<path d="M337.992 200.197L339.293 203.989H343.504L340.097 206.333L341.399 210.126L337.992 207.782L334.586 210.126L335.887 206.333L332.481 203.989H336.691L337.992 200.197Z" fill="white" stroke="#263238" stroke-miterlimit="10" stroke-linecap="round" stroke-linejoin="round"/>
<path d="M355.235 200.197L356.535 203.989H360.745L357.34 206.333L358.64 210.126L355.235 207.782L351.829 210.126L353.13 206.333L349.724 203.989H353.934L355.235 200.197Z" fill="white" stroke="#263238" stroke-miterlimit="10" stroke-linecap="round" stroke-linejoin="round"/>
<path d="M372.476 200.197L373.777 203.989H377.987L374.581 206.333L375.882 210.126L372.476 207.782L369.07 210.126L370.371 206.333L366.965 203.989H371.175L372.476 200.197Z" fill="white" stroke="#263238" stroke-miterlimit="10" stroke-linecap="round" stroke-linejoin="round"/>
<path d="M389.718 200.197L391.019 203.989H395.229L391.823 206.333L393.124 210.126L389.718 207.782L386.312 210.126L387.613 206.333L384.207 203.989H388.417L389.718 200.197Z" fill="white" stroke="#263238" stroke-miterlimit="10" stroke-linecap="round" stroke-linejoin="round"/>
<path d="M406.96 200.197L408.26 203.989H412.47L409.065 206.333L410.365 210.126L406.96 207.782L403.553 210.126L404.855 206.333L401.448 203.989H405.658L406.96 200.197Z" fill="white" stroke="#263238" stroke-miterlimit="10" stroke-linecap="round" stroke-linejoin="round"/>
<path d="M354.508 86.5903C350.721 87.4634 346.903 85.2637 345.982 81.6756L341.466 64.1008C340.544 60.5135 342.867 56.8972 346.654 56.0242C350.441 55.1511 354.259 57.3515 355.18 60.9389L359.696 78.5137C360.618 82.101 358.295 85.7172 354.508 86.5903Z" fill="white" stroke="#263238" stroke-miterlimit="10" stroke-linecap="round" stroke-linejoin="round"/>
<path d="M347.333 107.154C344.625 107.778 342.245 106.124 342.019 103.457L340.145 81.3551C339.919 78.6896 341.932 76.0216 344.641 75.3972C347.35 74.7727 349.729 76.4272 349.955 79.0935L351.828 101.196C352.055 103.861 350.043 106.528 347.333 107.154Z" fill="white" stroke="#263238" stroke-miterlimit="10" stroke-linecap="round" stroke-linejoin="round"/>
<path d="M397.214 82.7007L373.625 78.0602C365.325 77.8958 357.038 78.7549 348.972 80.615L333.126 84.2693C329.626 85.0763 326.098 83.0426 325.246 79.7279L321.921 66.7911C321.069 63.4763 323.216 60.1344 326.716 59.3273L339.534 56.3719C349.249 54.1318 358.533 50.4652 367.051 45.5042L383.792 30.4702L397.214 82.7007Z" fill="white" stroke="#263238" stroke-miterlimit="10" stroke-linecap="round" stroke-linejoin="round"/>
<path d="M348.407 53.8716C345.495 54.833 342.538 55.6789 339.534 56.3711L326.716 59.3265C323.216 60.1335 321.069 63.4747 321.921 66.7902L325.246 79.727C326.098 83.0418 329.626 85.0754 333.126 84.2684L348.972 80.6142C350.96 80.1557 352.962 79.7592 354.974 79.4231L348.407 53.8716Z" fill="#263238" stroke="#263238" stroke-miterlimit="10" stroke-linecap="round" stroke-linejoin="round"/>
<path d="M401.447 88.8742L398.309 89.5978C396.096 90.1082 393.866 88.8222 393.327 86.7258L378.99 30.9353C378.451 28.8389 379.809 26.726 382.022 26.2155L385.161 25.4919C387.374 24.9814 389.604 26.2675 390.143 28.3639L404.48 84.1536C405.018 86.2508 403.66 88.3637 401.447 88.8742Z" fill="#92E3A9" stroke="#263238" stroke-miterlimit="10" stroke-linecap="round" stroke-linejoin="round"/>
<path d="M409.153 34.8794L403.621 43.1477" stroke="#263238" stroke-width="2" stroke-miterlimit="10" stroke-linecap="round" stroke-linejoin="round"/>
<path d="M418.066 69.5623L409.141 64.627" stroke="#263238" stroke-width="2" stroke-miterlimit="10" stroke-linecap="round" stroke-linejoin="round"/>
<path d="M408.319 53.9798L419.161 51.4795" stroke="#263238" stroke-width="2" stroke-miterlimit="10" stroke-linecap="round" stroke-linejoin="round"/>
<path d="M351.706 98.6333L355.502 101.702C355.951 102.065 356.269 102.553 356.408 103.097C356.775 104.526 355.85 105.966 354.341 106.313L342.358 109.076L341.608 98.7019L351.706 98.6333Z" fill="#263238" stroke="#263238" stroke-miterlimit="10" stroke-linecap="round" stroke-linejoin="round"/>
<path d="M332.344 67.4832C332.128 66.6423 331.234 66.1269 330.346 66.3318C329.458 66.5366 328.914 67.3841 329.13 68.225C329.347 69.0658 330.241 69.5812 331.129 69.3772C332.016 69.1716 332.56 68.3241 332.344 67.4832Z" fill="#92E3A9"/>
<path d="M63.7877 378.836C63.7877 378.836 63.4711 382.684 64.5795 383.824C65.6878 384.964 75.5074 385.392 76.6157 383.967C77.724 382.542 77.0909 377.268 77.0909 377.268C77.0909 377.268 73.132 378.551 63.7877 378.836Z" fill="#92E3A9" stroke="#263238" stroke-miterlimit="10" stroke-linecap="round" stroke-linejoin="round"/>
<path d="M73.7651 383.254C68.4207 383.385 65.564 383.06 64.0188 382.673C64.1444 383.147 64.3223 383.56 64.5795 383.825C65.6878 384.965 75.5074 385.393 76.6157 383.968C76.7744 383.765 76.8939 383.476 76.9881 383.142C75.9957 383.186 74.9397 383.225 73.7651 383.254Z" fill="white" stroke="#263238" stroke-miterlimit="10" stroke-linecap="round" stroke-linejoin="round"/>
<path d="M92.9282 383.669C92.9282 383.669 96.7502 386.969 101.342 388.251C105.935 389.534 107.202 390.247 106.727 391.672C106.251 393.097 102.293 393.525 92.7904 393.81C83.2882 394.095 76.1404 392.932 74.8734 392.077C73.6064 391.222 74.3982 389.654 74.8734 389.226C75.3487 388.798 91.1859 382.528 92.9282 383.669Z" fill="#92E3A9" stroke="#263238" stroke-miterlimit="10" stroke-linecap="round" stroke-linejoin="round"/>
<path d="M106.728 391.672C106.894 391.171 106.84 390.759 106.508 390.378C104.299 391.232 100.345 391.487 91.2069 391.387C83.1801 391.299 78.2742 390.178 74.2648 390.331C74.1113 390.924 74.1767 391.607 74.8743 392.077C76.1413 392.932 83.2882 394.095 92.7913 393.81C102.293 393.525 106.252 393.098 106.728 391.672Z" fill="white" stroke="#263238" stroke-miterlimit="10" stroke-linecap="round" stroke-linejoin="round"/>
<path d="M73.4485 300.448C73.4485 300.448 73.132 317.551 69.6475 332.231C66.163 346.911 63.9464 353.753 63.3124 363.016C62.6793 372.281 63.4711 379.691 63.4711 379.691C63.4711 379.691 65.2134 380.546 69.4888 380.261C73.7651 379.976 76.1404 378.409 76.1404 378.409C76.1404 378.409 76.6156 362.446 76.6156 353.61C76.6156 344.773 80.7332 320.544 81.0498 311.565C81.3663 302.586 78.5157 298.026 76.4569 296.601C74.399 295.174 73.4485 300.448 73.4485 300.448Z" fill="#263238" stroke="#263238" stroke-miterlimit="10" stroke-linecap="round" stroke-linejoin="round"/>
<path d="M94.3539 280.495C94.3539 280.495 94.1952 289.046 94.1952 299.878C94.1952 310.709 91.6612 336.079 89.6024 348.193C87.5436 360.307 88.9693 376.827 89.2858 378.11C89.6024 379.392 90.2363 378.965 91.3446 380.247C92.4529 381.53 93.72 383.811 93.72 383.811C93.72 383.811 87.5436 387.801 82.7921 389.227C78.0405 390.652 76.2991 391.222 75.19 391.222C74.0816 391.222 74.0816 390.225 73.2899 387.802C72.4981 385.379 72.4981 375.26 72.4981 375.26C72.4981 375.26 70.2806 360.878 70.2806 352.042C70.2806 343.205 74.5569 337.789 74.5569 329.239C74.5569 320.687 71.8642 297.599 70.2806 294.178C68.697 290.758 65.6878 286.054 65.3712 283.632C65.0547 281.209 64.896 279.641 64.896 279.641L94.3539 280.495Z" fill="#263238" stroke="#263238" stroke-miterlimit="10" stroke-linecap="round" stroke-linejoin="round"/>
<path d="M74.3991 205.243C74.3991 205.243 68.064 215.219 65.8474 223.771C63.6299 232.322 61.5711 249.282 60.9381 258.974C60.3041 268.665 58.8793 282.062 58.8793 282.062C58.8793 282.062 66.9566 284.343 78.2002 284.2C89.4446 284.058 99.422 281.919 99.422 281.919C99.422 281.919 95.9375 253.985 92.6117 237.737C89.2859 221.49 86.1188 211.228 86.1188 211.228C86.1188 211.228 77.5662 204.673 74.3991 205.243Z" fill="#92E3A9" stroke="#263238" stroke-miterlimit="10" stroke-linecap="round" stroke-linejoin="round"/>
<path d="M78.5167 186.572C78.5167 186.572 79.7837 190.42 78.6754 194.839C77.5671 199.257 76.9331 202.392 76.9331 202.392C76.9331 202.392 86.1188 211.656 86.1188 211.229C86.1188 210.801 86.4353 205.956 87.861 202.962C89.2859 199.97 90.2363 198.259 90.2363 198.259C90.2363 198.259 87.0692 196.691 85.327 192.986C83.5847 189.28 83.4269 183.436 81.0507 183.294C78.6754 183.151 78.5167 186.572 78.5167 186.572Z" fill="white" stroke="#263238" stroke-miterlimit="10" stroke-linecap="round" stroke-linejoin="round"/>
<path d="M82.629 198.048C82.629 198.048 82.3648 200.424 83.4208 202.549C84.4768 204.675 86.0603 206.925 86.0603 206.925L88.5682 200.174L82.629 198.048Z" fill="#263238" stroke="#263238" stroke-miterlimit="10" stroke-linecap="round" stroke-linejoin="round"/>
<path d="M100.114 176.867C100.114 176.867 100.114 185.276 100.747 187.129C101.381 188.981 103.598 189.409 103.282 190.407C102.965 191.405 99.9557 191.975 99.9557 191.975C99.9557 191.975 99.1639 199.101 98.53 201.096C97.896 203.092 96.3125 203.519 92.8288 203.234C89.3443 202.949 85.3854 201.951 83.8019 199.813C82.2183 197.676 81.2679 193.827 81.2679 193.827C81.2679 193.827 80.4761 188.126 80.4761 183.566C80.4761 179.005 79.8421 176.582 86.4938 174.16C93.1454 171.737 99.797 174.872 100.114 176.867Z" fill="white" stroke="#263238" stroke-miterlimit="10" stroke-linecap="round" stroke-linejoin="round"/>
<path d="M97.5795 187.628C97.5795 188.455 97.331 189.125 97.0249 189.125C96.7189 189.125 96.4703 188.455 96.4703 187.628C96.4703 186.801 96.7189 186.132 97.0249 186.132C97.331 186.132 97.5795 186.801 97.5795 187.628Z" fill="#263238"/>
<path d="M94.2537 184.564C94.2537 184.564 95.0454 181.856 97.4208 181.998" stroke="#263238" stroke-miterlimit="10" stroke-linecap="round" stroke-linejoin="round"/>
<path d="M94.619 192.723C94.619 192.723 94.994 194.263 98.2448 194.144" stroke="#263238" stroke-miterlimit="10" stroke-linecap="round" stroke-linejoin="round"/>
<path d="M83.0092 190.978L86.335 190.123C86.335 190.123 84.435 187.415 86.4938 186.132C88.5525 184.85 91.5618 183.852 90.77 182.569C89.9783 181.286 84.7524 180.573 87.2855 179.006C89.8196 177.438 93.3041 176.583 93.9371 177.153C94.5711 177.723 93.9371 178.436 98.0547 178.436C102.172 178.436 104.39 177.011 103.123 172.45C101.856 167.889 95.0463 166.179 90.77 167.747C86.4938 169.314 85.2267 170.454 85.2267 170.454C85.2267 170.454 76.1998 170.739 73.5071 176.725C70.8152 182.711 71.9235 186.417 73.8236 188.412C75.7237 190.408 78.5751 192.546 79.6834 192.546C80.7917 192.545 83.0092 190.978 83.0092 190.978Z" fill="#263238" stroke="#263238" stroke-miterlimit="10" stroke-linecap="round" stroke-linejoin="round"/>
<path d="M84.435 192.687C84.435 192.26 83.168 186.274 80.7926 186.274C78.4173 186.274 77.1503 187.842 78.1008 191.406C79.0513 194.969 81.9018 196.109 84.1185 194.256" fill="white"/>
<path d="M84.435 192.687C84.435 192.26 83.168 186.274 80.7926 186.274C78.4173 186.274 77.1503 187.842 78.1008 191.406C79.0513 194.969 81.9018 196.109 84.1185 194.256" stroke="#263238" stroke-miterlimit="10" stroke-linecap="round" stroke-linejoin="round"/>
<path d="M75.0321 198.972L87.5435 209.518L88.8106 216.217L71.865 205.528L75.0321 198.972Z" fill="#92E3A9" stroke="#263238" stroke-miterlimit="10" stroke-linecap="round" stroke-linejoin="round"/>
<path d="M58.7842 313.837C57.8119 313.837 56.9896 313.164 56.912 312.277L55.6964 298.302C55.4993 296.044 57.3811 294.054 59.889 293.866L84.9433 291.988C87.4337 291.813 89.6565 293.47 89.8919 295.711L91.3813 309.847C91.4789 310.778 90.7212 311.604 89.687 311.692C88.6711 311.779 87.7346 311.097 87.6378 310.167L86.1475 296.031C86.1048 295.629 85.715 295.311 85.2564 295.361L60.2003 297.239C59.7477 297.272 59.4085 297.632 59.4434 298.038L60.659 312.012C60.7409 312.944 59.9675 313.759 58.9315 313.831C58.8836 313.836 58.8339 313.837 58.7842 313.837Z" fill="#263238" stroke="white" stroke-miterlimit="10"/>
<path d="M45.3248 312.412L48.6951 335.42C48.9375 337.073 50.4888 338.261 52.2354 338.13L100.395 334.518C102.118 334.39 103.447 333.019 103.447 331.373V307.584L74.624 313.166L45.3248 312.412Z" fill="#92E3A9" stroke="#263238" stroke-miterlimit="10" stroke-linecap="round" stroke-linejoin="round"/>
<path d="M55.4348 335.375L54.7799 335.421C54.3936 335.449 54.0561 335.189 54.0265 334.842L52.5441 317.77C52.5136 317.422 52.8022 317.119 53.1885 317.092L53.8434 317.045C54.2297 317.018 54.5671 317.278 54.5968 317.625L56.0792 334.697C56.1097 335.044 55.8211 335.348 55.4348 335.375Z" fill="white" stroke="#263238" stroke-miterlimit="10" stroke-linecap="round" stroke-linejoin="round"/>
<path d="M61.2772 334.964L60.6223 335.01C60.236 335.037 59.8985 334.778 59.8689 334.43L58.3865 317.358C58.356 317.011 58.6446 316.708 59.0309 316.68L59.6858 316.634C60.0721 316.607 60.4087 316.866 60.4392 317.214L61.9216 334.286C61.9512 334.633 61.6635 334.937 61.2772 334.964Z" fill="white" stroke="#263238" stroke-miterlimit="10" stroke-linecap="round" stroke-linejoin="round"/>
<path d="M67.1187 334.553L66.4639 334.599C66.0776 334.627 65.7401 334.367 65.7104 334.02L64.228 316.948C64.1975 316.6 64.4862 316.297 64.8725 316.27L65.5273 316.223C65.9136 316.196 66.2511 316.456 66.2807 316.803L67.7631 333.875C67.7937 334.223 67.505 334.526 67.1187 334.553Z" fill="white" stroke="#263238" stroke-miterlimit="10" stroke-linecap="round" stroke-linejoin="round"/>
<path d="M72.9611 334.143L72.3063 334.189C71.92 334.216 71.5825 333.957 71.5528 333.609L70.0705 316.537C70.0399 316.19 70.3286 315.887 70.7149 315.859L71.3697 315.813C71.756 315.786 72.0935 316.045 72.1231 316.393L73.6055 333.465C73.6352 333.812 73.3466 334.116 72.9611 334.143Z" fill="white" stroke="#263238" stroke-miterlimit="10" stroke-linecap="round" stroke-linejoin="round"/>
<path d="M78.8026 333.731L78.1477 333.778C77.7614 333.805 77.4239 333.546 77.3943 333.198L75.9119 316.126C75.8814 315.778 76.17 315.475 76.5563 315.448L77.2112 315.402C77.5975 315.374 77.9349 315.634 77.9646 315.981L79.447 333.053C79.4775 333.401 79.1889 333.704 78.8026 333.731Z" fill="white" stroke="#263238" stroke-miterlimit="10" stroke-linecap="round" stroke-linejoin="round"/>
<path d="M84.645 333.321L83.9901 333.367C83.6038 333.394 83.2663 333.135 83.2367 332.787L81.7543 315.715C81.7238 315.368 82.0124 315.064 82.3987 315.037L83.0536 314.991C83.4399 314.964 83.7773 315.223 83.807 315.571L85.2894 332.643C85.319 332.99 85.0304 333.293 84.645 333.321Z" fill="white" stroke="#263238" stroke-miterlimit="10" stroke-linecap="round" stroke-linejoin="round"/>
<path d="M90.4865 332.91L89.8316 332.957C89.4453 332.984 89.1079 332.725 89.0782 332.377L87.5958 315.305C87.5653 314.957 87.854 314.654 88.2402 314.627L88.8951 314.581C89.2814 314.553 89.618 314.813 89.6485 315.16L91.1309 332.232C91.1615 332.579 90.8728 332.883 90.4865 332.91Z" fill="white" stroke="#263238" stroke-miterlimit="10" stroke-linecap="round" stroke-linejoin="round"/>
<path d="M96.3281 332.499L95.6732 332.545C95.2869 332.572 94.9494 332.313 94.9198 331.965L93.4374 314.894C93.4069 314.546 93.6955 314.243 94.0818 314.215L94.7367 314.169C95.123 314.142 95.4604 314.401 95.4901 314.749L96.9725 331.821C97.003 332.169 96.7144 332.472 96.3281 332.499Z" fill="white" stroke="#263238" stroke-miterlimit="10" stroke-linecap="round" stroke-linejoin="round"/>
<path d="M41.8403 309.152L74.1479 311.005L106.773 303.594L107.565 308.154L74.3066 314.995L42.6321 313.285L41.8403 309.152Z" fill="#92E3A9" stroke="#263238" stroke-miterlimit="10" stroke-linecap="round" stroke-linejoin="round"/>
<path d="M66.797 246.432C66.797 246.432 64.897 250.993 65.53 260.257C66.164 269.521 71.7064 285.484 71.7064 286.339C71.7064 287.194 67.9054 290.757 68.0641 292.325C68.2228 293.892 69.6476 296.03 69.6476 296.03C69.6476 296.03 67.9054 296.6 68.0641 297.313C68.2228 298.026 68.698 298.311 69.9641 298.311C71.2312 298.311 73.29 299.309 74.557 298.026C75.824 296.743 76.4571 296.03 76.7745 294.035C77.091 292.04 76.4579 288.904 76.4579 283.774C76.4579 278.644 74.0826 255.27 74.8744 252.846C75.6662 250.423 76.6166 248.571 76.6166 248.571L66.797 246.432Z" fill="white" stroke="#263238" stroke-miterlimit="10" stroke-linecap="round" stroke-linejoin="round"/>
<path d="M74.7156 216.359C74.7156 216.359 70.9146 217.784 68.6979 220.35C66.4805 222.915 67.2722 226.051 67.4309 228.046C67.5896 230.042 67.2722 232.892 67.2722 232.892L63.7877 245.861C63.7877 245.861 64.896 247.571 72.3394 248.997C79.7828 250.422 82.1581 250.422 82.1581 250.422C82.1581 250.422 81.5242 235.599 82.1581 229.613C82.7921 223.627 83.5839 220.777 81.3664 218.639" fill="#92E3A9"/>
<path d="M74.7156 216.359C74.7156 216.359 70.9146 217.784 68.6979 220.35C66.4805 222.915 67.2722 226.051 67.4309 228.046C67.5896 230.042 67.2722 232.892 67.2722 232.892L63.7877 245.861C63.7877 245.861 64.896 247.571 72.3394 248.997C79.7828 250.422 82.1581 250.422 82.1581 250.422C82.1581 250.422 81.5242 235.599 82.1581 229.613C82.7921 223.627 83.5839 220.777 81.3664 218.639" stroke="#263238" stroke-miterlimit="10" stroke-linecap="round" stroke-linejoin="round"/>
<path d="M38.4952 101.354H79.6458C82.1571 101.354 84.1933 103.283 84.1933 105.662V130.221C84.1933 132.6 82.1571 134.529 79.6458 134.529H66.2937L68.9629 146.193L57.3592 134.529H38.4952C35.9839 134.529 33.9478 132.6 33.9478 130.221V105.662C33.9478 103.283 35.9839 101.354 38.4952 101.354Z" fill="white" stroke="#263238" stroke-miterlimit="10" stroke-linecap="round" stroke-linejoin="round"/>
<path d="M50.4922 117.607C50.4922 118.761 49.5042 119.696 48.286 119.696C47.0678 119.696 46.0798 118.761 46.0798 117.607C46.0798 116.453 47.0678 115.517 48.286 115.517C49.505 115.517 50.4922 116.453 50.4922 117.607Z" fill="#263238"/>
<path d="M61.2762 117.607C61.2762 118.761 60.2882 119.696 59.0701 119.696C57.8519 119.696 56.8639 118.761 56.8639 117.607C56.8639 116.453 57.8519 115.517 59.0701 115.517C60.2882 115.517 61.2762 116.453 61.2762 117.607Z" fill="#263238"/>
<path d="M72.0601 117.607C72.0601 118.761 71.0722 119.696 69.854 119.696C68.6358 119.696 67.6478 118.761 67.6478 117.607C67.6478 116.453 68.6349 115.517 69.854 115.517C71.0722 115.517 72.0601 116.453 72.0601 117.607Z" fill="#263238"/>
<path d="M118.536 115.016H81.6705C79.4208 115.016 77.5966 116.744 77.5966 118.875V140.878C77.5966 143.009 79.4208 144.737 81.6705 144.737H82.4658L80.0748 155.186L90.4699 144.737H118.536C120.786 144.737 122.61 143.009 122.61 140.878V118.875C122.61 116.744 120.786 115.016 118.536 115.016Z" fill="#92E3A9" stroke="#263238" stroke-miterlimit="10" stroke-linecap="round" stroke-linejoin="round"/>
<path d="M92.5688 128.982C92.5688 130.136 91.5817 131.072 90.3627 131.072C89.1445 131.072 88.1565 130.136 88.1565 128.982C88.1565 127.828 89.1436 126.893 90.3627 126.893C91.5817 126.893 92.5688 127.828 92.5688 128.982Z" fill="#263238"/>
<path d="M103.353 128.982C103.353 130.136 102.365 131.072 101.147 131.072C99.9285 131.072 98.9406 130.136 98.9406 128.982C98.9406 127.828 99.9277 126.893 101.147 126.893C102.366 126.893 103.353 127.828 103.353 128.982Z" fill="#263238"/>
<path d="M114.137 128.982C114.137 130.136 113.15 131.072 111.932 131.072C110.713 131.072 109.725 130.136 109.725 128.982C109.725 127.828 110.713 126.893 111.932 126.893C113.149 126.893 114.137 127.828 114.137 128.982Z" fill="#263238"/>
<path d="M44.7753 60.939H35.792V86.3244H44.7753V60.939Z" fill="#263238" stroke="#263238" stroke-width="0.5" stroke-miterlimit="10" stroke-linecap="round" stroke-linejoin="round"/>
<path d="M58.8922 70.0713H49.9088V86.3245H58.8922V70.0713Z" fill="#92E3A9" stroke="#263238" stroke-miterlimit="10" stroke-linecap="round" stroke-linejoin="round"/>
<path d="M73.009 55.3801H64.0256V86.3246H73.009V55.3801Z" fill="#263238" stroke="#263238" stroke-width="0.5" stroke-miterlimit="10" stroke-linecap="round" stroke-linejoin="round"/>
<path d="M87.1258 61.7815H78.1425V86.3244H87.1258V61.7815Z" fill="#92E3A9" stroke="#263238" stroke-miterlimit="10" stroke-linecap="round" stroke-linejoin="round"/>
<path d="M101.243 56.1738H92.2593V86.3237H101.243V56.1738Z" fill="#263238" stroke="#263238" stroke-width="0.5" stroke-miterlimit="10" stroke-linecap="round" stroke-linejoin="round"/>
<path d="M115.359 38.3066H106.376V86.3245H115.359V38.3066Z" fill="#92E3A9" stroke="#263238" stroke-miterlimit="10" stroke-linecap="round" stroke-linejoin="round"/>
<path d="M125.451 37.8003H130.706" stroke="#263238" stroke-width="0.5" stroke-miterlimit="10" stroke-linecap="round" stroke-linejoin="round"/>
<path d="M125.451 47.5073H130.706" stroke="#263238" stroke-width="0.5" stroke-miterlimit="10" stroke-linecap="round" stroke-linejoin="round"/>
<path d="M125.451 57.2139H130.706" stroke="#263238" stroke-width="0.5" stroke-miterlimit="10" stroke-linecap="round" stroke-linejoin="round"/>
<path d="M125.451 66.9209H130.706" stroke="#263238" stroke-width="0.5" stroke-miterlimit="10" stroke-linecap="round" stroke-linejoin="round"/>
<path d="M125.451 76.6272H130.706" stroke="#263238" stroke-width="0.5" stroke-miterlimit="10" stroke-linecap="round" stroke-linejoin="round"/>
<path d="M125.451 86.3335H130.706" stroke="#263238" stroke-width="0.5" stroke-miterlimit="10" stroke-linecap="round" stroke-linejoin="round"/>
<path d="M40.929 51.5804L54.6943 59.4679L69.0039 44.9427L83.146 46.0719L96.8477 40.9209L112.349 21.5991" stroke="#263238" stroke-miterlimit="10" stroke-linecap="round" stroke-linejoin="round"/>
<path d="M42.6651 51.5806C42.6651 50.6728 41.8881 49.936 40.9289 49.936C39.9706 49.936 39.1927 50.672 39.1927 51.5806C39.1927 52.4884 39.9697 53.2252 40.9289 53.2252C41.8872 53.2252 42.6651 52.4892 42.6651 51.5806Z" fill="#263238"/>
<path d="M56.4304 59.4681C56.4304 58.5603 55.6535 57.8235 54.6943 57.8235C53.736 57.8235 52.9581 58.5595 52.9581 59.4681C52.9581 60.3758 53.7351 61.1126 54.6943 61.1126C55.6535 61.1126 56.4304 60.3758 56.4304 59.4681Z" fill="#263238"/>
<path d="M70.74 44.9427C70.74 44.0349 69.9631 43.2981 69.0039 43.2981C68.0455 43.2981 67.2677 44.0341 67.2677 44.9427C67.2677 45.8504 68.0447 46.5872 69.0039 46.5872C69.9631 46.5872 70.74 45.8513 70.74 44.9427Z" fill="#263238"/>
<path d="M84.8812 46.0718C84.8812 45.164 84.1043 44.4272 83.1451 44.4272C82.1868 44.4272 81.4089 45.1632 81.4089 46.0718C81.4089 46.9796 82.1859 47.7164 83.1451 47.7164C84.1043 47.7164 84.8812 46.9804 84.8812 46.0718Z" fill="#263238"/>
<path d="M98.5838 40.6617C98.5838 39.7539 97.8068 39.0171 96.8476 39.0171C95.8884 39.0171 95.1115 39.7531 95.1115 40.6617C95.1115 41.5703 95.8884 42.3062 96.8476 42.3062C97.8059 42.3054 98.5838 41.5694 98.5838 40.6617Z" fill="#263238"/>
<path d="M114.085 21.5992C114.085 20.6906 113.308 19.9546 112.349 19.9546C111.39 19.9546 110.613 20.6906 110.613 21.5992C110.613 22.5069 111.39 23.2437 112.349 23.2437C113.308 23.2437 114.085 22.5078 114.085 21.5992Z" fill="#263238"/>
</svg>
