<svg width="123" height="137" viewBox="0 0 123 137" fill="none" xmlns="http://www.w3.org/2000/svg">
<path d="M11.8934 112.367H15.1713V122.809C15.0479 122.844 14.8453 122.888 14.5633 122.941C14.2813 122.994 13.9906 123.02 13.691 123.02C13.1446 123.02 12.7041 122.862 12.3692 122.545C12.052 122.21 11.8934 121.778 11.8934 121.249V112.367ZM15.1713 117.548L11.8934 117.522V108.719C11.8934 108.173 12.052 107.741 12.3692 107.424C12.7041 107.107 13.1446 106.948 13.691 106.948C13.9906 106.948 14.2813 106.974 14.5633 107.027C14.8453 107.08 15.0479 107.124 15.1713 107.159V117.548ZM13.691 116.121V113.477H21.6478C21.7359 113.601 21.8153 113.777 21.8857 114.006C21.9739 114.235 22.0179 114.482 22.0179 114.746C22.0179 115.204 21.9122 115.548 21.7007 115.777C21.4892 116.006 21.1984 116.121 20.8284 116.121H13.691ZM13.691 123.02V120.35H22.573C22.6435 120.474 22.714 120.65 22.7845 120.879C22.8726 121.108 22.9167 121.364 22.9167 121.646C22.9167 122.104 22.811 122.448 22.5995 122.677C22.388 122.906 22.0972 123.02 21.7271 123.02H13.691ZM13.691 109.644V106.948H22.4409C22.529 107.071 22.6083 107.248 22.6788 107.477C22.7493 107.706 22.7845 107.952 22.7845 108.217C22.7845 108.675 22.6788 109.028 22.4673 109.274C22.2735 109.521 21.9827 109.644 21.595 109.644H13.691ZM30.7166 120.906C31.2453 120.906 31.7211 120.853 32.1441 120.747C32.5671 120.641 32.8755 120.527 33.0693 120.403V117.39L30.4523 117.654C29.7297 117.707 29.1746 117.866 28.7869 118.13C28.4168 118.377 28.2317 118.747 28.2317 119.24C28.2317 119.751 28.4344 120.157 28.8397 120.456C29.2451 120.756 29.8707 120.906 30.7166 120.906ZM30.5844 110.12C32.3115 110.12 33.6861 110.49 34.7083 111.23C35.7304 111.953 36.2415 113.098 36.2415 114.667V120.747C36.2415 121.17 36.1358 121.505 35.9243 121.751C35.7304 121.998 35.4749 122.218 35.1577 122.412C34.6642 122.694 34.0386 122.923 33.2808 123.1C32.523 123.293 31.6683 123.39 30.7166 123.39C28.9543 123.39 27.5709 123.056 26.5664 122.386C25.5618 121.699 25.0596 120.685 25.0596 119.346C25.0596 118.165 25.4297 117.266 26.1698 116.65C26.9276 116.015 28.0203 115.627 29.4477 115.486L33.0429 115.116V114.64C33.0429 113.936 32.7962 113.424 32.3027 113.107C31.8269 112.79 31.1484 112.631 30.2672 112.631C29.5799 112.631 28.9102 112.72 28.2582 112.896C27.6061 113.072 27.0246 113.284 26.5135 113.53C26.3373 113.389 26.1786 113.195 26.0377 112.949C25.8967 112.702 25.8262 112.446 25.8262 112.182C25.8262 111.548 26.1786 111.081 26.8836 110.781C27.377 110.552 27.9498 110.384 28.6018 110.279C29.2715 110.173 29.9324 110.12 30.5844 110.12ZM49.2602 119.452C49.2602 120.685 48.802 121.655 47.8856 122.359C46.9692 123.047 45.6386 123.39 43.894 123.39C42.4841 123.39 41.3298 123.179 40.431 122.756C39.5322 122.333 39.0828 121.769 39.0828 121.064C39.0828 120.765 39.1533 120.491 39.2943 120.245C39.4353 119.98 39.6203 119.778 39.8494 119.637C40.3429 119.954 40.9156 120.236 41.5677 120.483C42.2197 120.729 42.9599 120.853 43.7882 120.853C45.2862 120.853 46.0352 120.394 46.0352 119.478C46.0352 119.09 45.903 118.782 45.6386 118.553C45.3743 118.306 44.969 118.13 44.4226 118.024L42.9159 117.628C41.6294 117.346 40.6689 116.905 40.0345 116.306C39.4177 115.707 39.1093 114.905 39.1093 113.9C39.1093 112.79 39.5675 111.882 40.4839 111.178C41.4003 110.455 42.6691 110.094 44.2905 110.094C45.1364 110.094 45.8942 110.182 46.5639 110.358C47.2335 110.517 47.7534 110.755 48.1235 111.072C48.5112 111.389 48.7051 111.768 48.7051 112.208C48.7051 112.508 48.6346 112.781 48.4936 113.028C48.3702 113.257 48.2028 113.433 47.9913 113.557C47.7799 113.433 47.4891 113.301 47.119 113.16C46.7665 113.002 46.3612 112.878 45.903 112.79C45.4448 112.684 44.9866 112.631 44.5284 112.631C43.8411 112.631 43.2948 112.746 42.8894 112.975C42.5017 113.187 42.3079 113.495 42.3079 113.9C42.3079 114.2 42.4224 114.455 42.6515 114.667C42.8806 114.878 43.2683 115.046 43.8146 115.169L45.1628 115.486C46.5903 115.821 47.6301 116.315 48.2821 116.967C48.9342 117.601 49.2602 118.429 49.2602 119.452ZM53.8361 120.007C53.5542 119.425 53.2281 118.703 52.858 117.839C52.5056 116.958 52.1355 115.945 51.7478 114.799C51.3601 113.636 50.9635 112.358 50.5582 110.966C50.7521 110.755 50.9988 110.578 51.2984 110.437C51.598 110.296 51.924 110.226 52.2765 110.226C52.7347 110.226 53.1048 110.332 53.3867 110.543C53.6863 110.737 53.9154 111.098 54.074 111.627C54.5322 113.002 54.9904 114.359 55.4486 115.698C55.9245 117.037 56.4267 118.403 56.9554 119.795H57.0612C57.396 119.02 57.7309 118.112 58.0657 117.073C58.4005 116.015 58.7178 114.922 59.0173 113.795C59.3346 112.667 59.5989 111.592 59.8104 110.57C60.0219 110.464 60.2422 110.384 60.4713 110.332C60.7004 110.261 60.9471 110.226 61.2114 110.226C61.652 110.226 62.0309 110.332 62.3481 110.543C62.683 110.737 62.8504 111.072 62.8504 111.548C62.8504 111.971 62.7711 112.535 62.6125 113.239C62.4715 113.927 62.2688 114.693 62.0045 115.539C61.7401 116.385 61.4317 117.266 61.0793 118.183C60.7444 119.099 60.3831 119.989 59.9954 120.853C59.6253 121.699 59.2464 122.465 58.8587 123.153C57.96 124.756 57.1317 125.963 56.3739 126.774C55.6161 127.602 54.8847 128.017 54.1798 128.017C53.6335 128.017 53.1841 127.849 52.8316 127.514C52.4968 127.197 52.2941 126.801 52.2236 126.325C52.6113 125.99 53.0166 125.585 53.4396 125.109C53.8802 124.65 54.3031 124.157 54.7085 123.628C55.1138 123.1 55.4575 122.58 55.7394 122.069C55.4398 121.981 55.1402 121.804 54.8406 121.54C54.5411 121.258 54.2062 120.747 53.8361 120.007Z" fill="#DFAF35"/>
<path d="M70.3197 120.668C71.3418 120.668 72.0996 120.465 72.5931 120.06C73.0865 119.637 73.3332 119.117 73.3332 118.5C73.3332 117.954 73.1394 117.513 72.7517 117.178C72.3816 116.826 71.8088 116.535 71.0334 116.306L69.3151 115.777C68.434 115.478 67.6586 115.143 66.9889 114.773C66.3368 114.403 65.8257 113.927 65.4557 113.345C65.1032 112.746 64.927 112.015 64.927 111.151C64.927 109.724 65.4557 108.596 66.5131 107.767C67.5881 106.939 69.0508 106.525 70.9012 106.525C71.8881 106.525 72.7605 106.631 73.5183 106.842C74.2937 107.036 74.9017 107.309 75.3423 107.662C75.8005 108.014 76.0296 108.428 76.0296 108.904C76.0296 109.239 75.9415 109.539 75.7652 109.803C75.6066 110.05 75.404 110.252 75.1572 110.411C74.7519 110.111 74.1968 109.856 73.4918 109.644C72.7869 109.415 72.0203 109.301 71.192 109.301C70.2756 109.301 69.5707 109.468 69.0772 109.803C68.5838 110.138 68.3371 110.587 68.3371 111.151C68.3371 111.609 68.5045 111.979 68.8393 112.261C69.1918 112.543 69.7205 112.79 70.4254 113.002L71.9586 113.451C73.4742 113.909 74.655 114.535 75.5009 115.328C76.3468 116.103 76.7698 117.169 76.7698 118.526C76.7698 119.972 76.2146 121.143 75.1044 122.042C74.0117 122.941 72.4433 123.39 70.399 123.39C69.324 123.39 68.3723 123.276 67.544 123.047C66.7157 122.818 66.0548 122.5 65.5614 122.095C65.0856 121.69 64.8477 121.232 64.8477 120.721C64.8477 120.333 64.971 119.998 65.2177 119.716C65.4645 119.434 65.7288 119.223 66.0108 119.082C66.469 119.469 67.0594 119.831 67.7819 120.165C68.5045 120.5 69.3504 120.668 70.3197 120.668ZM91.0745 117.654H87.823V115.275C87.823 114.376 87.5763 113.724 87.0828 113.319C86.607 112.913 85.999 112.711 85.2588 112.711C84.6596 112.711 84.1045 112.825 83.5934 113.054C83.1 113.284 82.6682 113.548 82.2981 113.847L82.1131 111.204C82.5184 110.957 83.0383 110.719 83.6727 110.49C84.3072 110.244 85.0209 110.12 85.814 110.12C87.4001 110.12 88.6689 110.534 89.6206 111.363C90.5899 112.191 91.0745 113.442 91.0745 115.116V117.654ZM79.5225 116.015H82.774V122.941C82.633 122.994 82.4303 123.038 82.166 123.073C81.9016 123.126 81.6108 123.153 81.2936 123.153C80.6944 123.153 80.245 123.047 79.9454 122.835C79.6635 122.606 79.5225 122.21 79.5225 121.646V116.015ZM87.823 116.042H91.0745V122.941C90.9335 122.994 90.722 123.038 90.4401 123.073C90.1757 123.126 89.8937 123.153 89.5941 123.153C88.9773 123.153 88.5279 123.047 88.246 122.835C87.964 122.606 87.823 122.21 87.823 121.646V116.042ZM82.774 117.681H79.5225V105.811C79.6635 105.776 79.8661 105.732 80.1305 105.679C80.3948 105.626 80.6856 105.6 81.0028 105.6C81.6196 105.6 82.069 105.714 82.351 105.943C82.633 106.155 82.774 106.543 82.774 107.107V117.681ZM106.734 116.729C106.734 118.086 106.47 119.267 105.941 120.271C105.412 121.258 104.663 122.025 103.694 122.571C102.742 123.1 101.614 123.364 100.31 123.364C99.0062 123.364 97.8695 123.1 96.9003 122.571C95.931 122.025 95.1732 121.258 94.6269 120.271C94.0982 119.284 93.8338 118.103 93.8338 116.729C93.8338 115.372 94.107 114.2 94.6533 113.213C95.1996 112.226 95.9574 111.468 96.9267 110.94C97.896 110.393 99.0239 110.12 100.31 110.12C101.597 110.12 102.716 110.393 103.668 110.94C104.637 111.468 105.386 112.235 105.915 113.239C106.461 114.226 106.734 115.389 106.734 116.729ZM100.31 112.711C99.3411 112.711 98.5745 113.063 98.0105 113.768C97.4642 114.473 97.1911 115.46 97.1911 116.729C97.1911 118.033 97.4642 119.037 98.0105 119.742C98.5569 120.43 99.3235 120.773 100.31 120.773C101.28 120.773 102.037 120.421 102.584 119.716C103.13 119.011 103.403 118.015 103.403 116.729C103.403 115.478 103.13 114.5 102.584 113.795C102.037 113.072 101.28 112.711 100.31 112.711ZM115.414 123.364C114.709 123.364 114.065 123.267 113.484 123.073C112.92 122.897 112.453 122.694 112.083 122.465V119.663C112.418 119.945 112.814 120.201 113.272 120.43C113.748 120.641 114.303 120.747 114.938 120.747C115.995 120.747 116.832 120.421 117.449 119.769C118.066 119.099 118.374 118.068 118.374 116.676C118.374 115.707 118.224 114.94 117.925 114.376C117.643 113.795 117.246 113.372 116.735 113.107C116.224 112.843 115.651 112.711 115.017 112.711C114.524 112.711 114.092 112.772 113.722 112.896C113.352 113.002 113.034 113.134 112.77 113.292V121.646H109.519V112.975C109.519 112.57 109.598 112.235 109.756 111.971C109.915 111.706 110.179 111.46 110.55 111.23C111.061 110.931 111.695 110.675 112.453 110.464C113.211 110.235 114.065 110.12 115.017 110.12C116.303 110.12 117.449 110.349 118.454 110.807C119.458 111.248 120.242 111.953 120.806 112.922C121.388 113.892 121.679 115.143 121.679 116.676C121.679 118.156 121.405 119.39 120.859 120.377C120.33 121.364 119.59 122.113 118.639 122.624C117.705 123.117 116.63 123.364 115.414 123.364ZM112.77 120.747V127.726C112.629 127.779 112.426 127.823 112.162 127.858C111.898 127.911 111.607 127.937 111.29 127.937C110.69 127.937 110.241 127.823 109.942 127.594C109.66 127.364 109.519 126.968 109.519 126.404V120.721L112.77 120.747Z" fill="#789885"/>
<path d="M50.1969 19.844H107.867C112.732 19.844 116.148 24.637 114.56 29.236L109.374 57.648C108.387 60.507 105.695 62.425 102.671 62.425H52.818C48.992 62.425 46.0109 59.109 46.4169 55.305L50.1969 19.844Z" fill="#DFAF35"/>
<path d="M106.516 65.955C105.153 70.459 101.002 73.542 96.296 73.545L48.799 73.577C44.435 73.577 40.252 71.722 37.323 68.486C34.394 65.251 32.963 60.905 33.395 56.563L37.211 18.267C37.613 14.233 34.805 10.496 30.818 9.75898L18.901 7.55897C16.831 7.17697 15.463 5.18997 15.845 3.11997C16.227 1.04997 18.214 -0.318027 20.284 0.0639729L32.201 2.26395C40.054 3.71295 45.586 11.074 44.795 19.021L41.004 57.062C40.789 59.215 41.348 61.416 42.726 63.084C44.252 64.932 46.425 65.954 48.799 65.954H106.516V65.955Z" fill="#789885"/>
<path d="M53.6201 89.0704C56.5084 85.9295 56.3036 81.0419 53.1627 78.1536C50.0218 75.2653 45.1341 75.4701 42.2458 78.611C39.3575 81.7519 39.5623 86.6395 42.7032 89.5278C45.8441 92.4161 50.7318 92.2113 53.6201 89.0704Z" fill="#789885"/>
<path d="M89.6846 89.3158C92.7017 86.2987 92.7017 81.4069 89.6846 78.3897C86.6674 75.3726 81.7756 75.3726 78.7585 78.3897C75.7413 81.4069 75.7413 86.2987 78.7585 89.3158C81.7756 92.333 86.6674 92.333 89.6846 89.3158Z" fill="#789885"/>
<path d="M65.5622 25.495L64.4202 36.629C63.7592 43.111 68.1152 48.222 74.5532 48.518L81.2272 48.825C81.2802 48.827 81.3322 48.829 81.3842 48.831C87.7972 49.044 94.1262 44.232 95.8372 37.81L98.8232 26.607C99.0922 25.596 98.5052 24.681 97.5122 24.561C97.4602 24.555 97.4092 24.551 97.3572 24.55C96.4152 24.519 95.4822 25.218 95.2262 26.177L92.2402 37.38C91.0362 41.9 86.6112 45.299 82.0712 45.148C82.0292 45.147 81.9862 45.145 81.9432 45.143L75.2692 44.836C70.7322 44.627 67.6612 41.025 68.1272 36.457L69.2692 25.324C69.3682 24.36 68.7082 23.598 67.7622 23.567C67.7102 23.565 67.6582 23.566 67.6042 23.568C66.5812 23.616 65.6662 24.478 65.5622 25.495Z" fill="white"/>
<path d="M27.1 42.3491L19.172 42.403L19.118 34.475C19.098 31.562 21.444 29.185 24.356 29.166L32.284 29.113L32.338 37.041C32.358 39.952 30.013 42.3301 27.1 42.3491Z" fill="#789885"/>
<path d="M18.2082 62.715L9.78321 62.772L9.72621 54.347C9.70521 51.252 12.1972 48.7249 15.2932 48.7039L23.7182 48.647L23.7752 57.072C23.7962 60.168 21.3032 62.695 18.2082 62.715Z" fill="#789885"/>
<path d="M5.67009 49.8349L0.0380896 49.8729L8.75926e-05 44.2409C-0.0139124 42.1719 1.65209 40.4829 3.72109 40.4689L9.35309 40.4309L9.39109 46.0629C9.40509 48.1319 7.73909 49.8209 5.67009 49.8349Z" fill="#789885"/>
</svg>
