<svg width="36" height="37" viewBox="0 0 36 37" fill="none" xmlns="http://www.w3.org/2000/svg">
<rect y="0.5" width="36" height="36" rx="5" fill="#789885"/>
<path d="M15.6215 23.8584H8.5332" stroke="white" stroke-linecap="round" stroke-linejoin="round"/>
<path d="M18.783 12.5504H25.8713" stroke="white" stroke-linecap="round" stroke-linejoin="round"/>
<path fill-rule="evenodd" clip-rule="evenodd" d="M13.8171 12.4873C13.8171 10.9757 12.6266 9.75 11.1585 9.75C9.69043 9.75 8.5 10.9757 8.5 12.4873C8.5 13.9989 9.69043 15.2246 11.1585 15.2246C12.6266 15.2246 13.8171 13.9989 13.8171 12.4873Z" stroke="white" stroke-linecap="round" stroke-linejoin="round"/>
<path fill-rule="evenodd" clip-rule="evenodd" d="M26.4999 23.8127C26.4999 22.3011 25.3104 21.0754 23.8423 21.0754C22.3733 21.0754 21.1829 22.3011 21.1829 23.8127C21.1829 25.3243 22.3733 26.55 23.8423 26.55C25.3104 26.55 26.4999 25.3243 26.4999 23.8127Z" stroke="white" stroke-linecap="round" stroke-linejoin="round"/>
</svg>
